<?xml version="1.0" standalone="no"?>
<!DOCTYPE svg PUBLIC "-//W3C//DTD SVG 20010904//EN"
 "http://www.w3.org/TR/2001/REC-SVG-20010904/DTD/svg10.dtd">
<svg version="1.0" xmlns="http://www.w3.org/2000/svg"
 width="464.000000pt" height="464.000000pt" viewBox="0 0 464.000000 464.000000"
 preserveAspectRatio="xMidYMid meet">
<metadata>
Created by potrace 1.14, written by Peter Selinger 2001-2017
</metadata>
<g transform="translate(0.000000,464.000000) scale(0.100000,-0.100000)"
fill="#000000" stroke="none">
<path d="M2076 4606 c-34 -31 -37 -39 -33 -73 3 -21 8 -45 11 -54 9 -22 59
-49 91 -49 28 0 85 28 85 42 0 4 10 18 21 29 17 17 19 23 8 31 -11 7 -9 8 5 4
13 -5 17 -2 13 8 -7 17 18 40 33 31 6 -3 8 -11 5 -16 -4 -5 -1 -9 4 -9 15 0
14 12 -4 37 -16 22 -50 27 -72 10 -9 -6 -15 -4 -19 6 -7 19 -27 28 -75 34 -31
4 -42 -1 -73 -31z m207 -22 c-23 -17 -30 -17 -30 -1 0 6 11 13 24 13 22 2 23
1 6 -12z"/>
<path d="M2289 4568 c-3 -14 -6 -60 -2 -51 2 7 11 9 20 6 13 -5 13 -3 5 14 -6
11 -8 23 -5 27 3 3 1 6 -5 6 -7 0 -12 -1 -13 -2z"/>
<path d="M2520 4547 c0 -7 4 -18 9 -26 8 -12 12 -13 26 -1 11 9 13 16 6 23
-15 15 -41 17 -41 4z"/>
<path d="M2650 4535 c0 -22 4 -26 23 -23 14 2 22 10 22 23 0 13 -8 21 -22 23
-19 3 -23 -1 -23 -23z"/>
<path d="M2798 4549 c-22 -12 -24 -62 -4 -78 27 -23 55 -21 75 5 40 51 -14
107 -71 73z"/>
<path d="M1575 4496 c-11 -7 -24 -14 -30 -15 -16 -3 -25 -38 -10 -38 7 0 12 8
10 19 -2 10 0 16 6 13 5 -4 7 -11 4 -16 -4 -5 -1 -9 6 -9 7 0 4 -7 -7 -16 -18
-14 -18 -15 4 -4 22 11 23 10 12 -9 -6 -12 -8 -26 -4 -32 4 -6 0 -16 -7 -21
-11 -8 -10 -9 4 -4 10 3 17 0 17 -7 0 -8 3 -8 9 2 5 8 14 10 21 6 8 -5 11 -4
6 3 -3 6 -2 13 4 17 5 3 10 -2 10 -12 1 -16 2 -16 12 2 6 11 16 23 22 27 7 5
6 8 -3 8 -11 0 -11 3 -1 15 9 11 8 20 -10 45 -24 33 -30 36 -49 18 -11 -11
-13 -10 -8 5 8 21 7 21 -18 3z m29 -38 c-3 -5 -10 -5 -16 -2 -7 4 -8 2 -4 -5
11 -17 37 6 29 26 -4 11 -2 14 8 11 8 -3 13 -13 11 -23 -2 -9 1 -14 7 -11 5 4
13 2 16 -4 4 -6 -10 -26 -30 -45 -35 -34 -52 -44 -41 -26 4 5 0 12 -6 14 -9 4
-10 8 -3 14 13 10 13 22 -3 49 -6 12 -9 24 -6 27 9 8 44 -15 38 -25z m46 -52
c0 -3 -4 -8 -10 -11 -5 -3 -10 -1 -10 4 0 6 5 11 10 11 6 0 10 -2 10 -4z"/>
<path d="M1604 4433 c-13 -10 -14 -13 -3 -13 12 0 12 -2 -1 -10 -8 -5 -12 -12
-8 -15 5 -5 58 39 58 49 0 8 -30 1 -46 -11z"/>
<path d="M1425 4448 c-29 -16 -43 -38 -50 -77 -5 -26 -9 -31 -18 -22 -9 9 -8
14 3 21 8 5 11 12 7 17 -5 4 -12 1 -17 -7 -12 -18 -12 -21 -1 -39 8 -13 12
-13 27 0 16 12 17 12 12 -3 -9 -22 55 -48 91 -38 42 11 105 123 66 117 -5 -1
-8 5 -7 13 2 8 1 12 -3 8 -4 -3 -22 0 -40 8 -41 17 -44 17 -70 2z"/>
<path d="M3215 4451 c-40 -12 -56 -28 -61 -63 -9 -50 26 -88 76 -85 23 2 34 7
32 15 -1 8 2 11 8 7 5 -3 10 -17 10 -30 0 -15 10 -31 25 -41 22 -14 30 -15 50
-4 14 7 25 18 26 24 0 6 2 19 4 28 5 25 -30 51 -60 46 -20 -4 -25 -2 -23 11 8
53 -42 105 -87 92z"/>
<path d="M1860 4373 c-18 -15 -31 -22 -27 -16 19 31 -74 16 -107 -17 -25 -25
-29 -112 -5 -135 33 -32 69 -43 109 -33 22 6 40 14 40 18 0 4 24 7 53 7 42 -1
57 3 79 22 54 48 45 136 -17 165 -48 23 -85 20 -125 -11z m-95 -61 c-3 -3 -11
0 -18 7 -9 10 -8 11 6 5 10 -3 15 -9 12 -12z m5 -66 c0 -3 -4 -8 -10 -11 -5
-3 -10 -1 -10 4 0 6 5 11 10 11 6 0 10 -2 10 -4z"/>
<path d="M2687 4380 c-14 -11 -29 -31 -33 -43 -4 -12 -14 -28 -23 -35 -9 -8
-10 -11 -3 -7 7 4 15 -1 18 -12 22 -69 63 -98 122 -88 42 7 82 36 82 59 0 9 4
16 10 16 16 0 -17 89 -42 110 -31 26 -97 26 -131 0z"/>
<path d="M1294 4368 c-4 -6 2 -17 12 -25 10 -8 18 -19 16 -24 -1 -6 2 -8 7 -4
14 8 2 35 -15 35 -20 0 -17 18 4 23 15 4 15 5 0 6 -9 0 -20 -4 -24 -11z"/>
<path d="M1271 4343 c7 -12 15 -20 18 -17 3 2 -3 12 -13 22 -17 16 -18 16 -5
-5z"/>
<path d="M1224 4320 c-6 -5 -12 -7 -40 -9 -8 0 -22 -17 -30 -36 -13 -31 -13
-39 1 -64 31 -61 107 -55 141 10 10 20 11 28 3 24 -8 -5 -10 -4 -5 4 12 18 -2
61 -20 61 -8 0 -13 4 -9 9 6 10 -32 11 -41 1z"/>
<path d="M1300 4316 c0 -8 4 -17 9 -20 5 -4 7 3 4 14 -6 23 -13 26 -13 6z"/>
<path d="M1340 4305 c-7 -9 -10 -18 -7 -21 3 -3 10 4 17 15 13 25 8 27 -10 6z"/>
<path d="M1360 4285 c-13 -24 -28 -28 -43 -10 -5 6 -7 4 -4 -5 3 -14 11 -16
55 -10 11 1 13 3 4 7 -10 4 -10 8 -1 19 6 8 16 11 22 7 6 -3 7 -1 3 5 -11 18
-21 14 -36 -13z"/>
<path d="M3125 4206 c-19 -14 -29 -66 -14 -66 6 0 7 -4 4 -10 -3 -5 1 -10 10
-10 9 0 14 4 11 9 -9 14 25 23 39 11 9 -8 14 -7 17 2 15 44 -33 89 -67 64z
m55 -28 c0 -5 -9 -3 -20 4 -11 7 -20 16 -20 20 0 5 9 3 20 -4 11 -7 20 -16 20
-20z m-25 -8 c4 -6 -1 -7 -11 -3 -12 4 -15 3 -10 -5 4 -7 3 -12 -3 -12 -16 0
-22 18 -9 23 20 8 26 8 33 -3z"/>
<path d="M1520 4165 c0 -26 18 -33 37 -14 16 16 5 39 -18 39 -14 0 -19 -7 -19
-25z"/>
<path d="M1371 4144 c-38 -49 12 -104 64 -70 27 18 32 43 13 69 -21 28 -55 29
-77 1z"/>
<path d="M3237 4148 c-7 -4 -12 -12 -12 -18 0 -6 -4 -14 -10 -18 -14 -10 -18
-35 -4 -26 7 4 9 0 5 -12 -3 -11 -1 -26 4 -34 8 -13 10 -12 10 4 0 18 14 14
16 -5 1 -5 2 -13 3 -18 0 -4 11 -8 24 -8 52 -1 67 -4 67 -13 0 -5 -8 -10 -17
-11 -11 0 -13 -3 -5 -6 6 -2 10 -8 7 -13 -3 -4 2 -13 10 -20 8 -7 15 -9 15 -5
0 4 7 2 15 -5 8 -6 20 -8 27 -4 7 5 19 9 27 11 7 1 19 7 25 13 8 8 7 11 -3 8
-7 -2 -15 2 -18 8 -2 7 4 11 13 10 9 0 19 6 21 14 4 12 3 13 -5 1 -5 -7 -15
-10 -22 -6 -8 5 -5 11 9 22 12 8 19 19 16 24 -4 5 -15 3 -28 -6 -28 -20 -32
-19 -34 6 -2 16 1 18 11 10 10 -8 17 -7 27 6 13 17 13 17 -5 3 -18 -13 -19
-13 -14 0 4 11 0 16 -12 16 -10 0 -17 -3 -14 -7 7 -12 -29 -20 -40 -9 -8 8 -6
9 7 5 10 -4 17 -2 17 4 0 6 -6 11 -14 11 -10 0 -13 8 -10 24 2 15 -2 26 -12
30 -8 3 -13 2 -10 -3 3 -5 -1 -12 -9 -15 -11 -4 -15 0 -13 12 2 9 7 20 12 23
12 9 -62 6 -77 -3z m57 -30 c-1 -16 3 -28 7 -28 5 0 9 -5 9 -11 0 -8 -6 -7
-17 2 -11 10 -14 10 -9 2 4 -7 3 -13 -2 -13 -11 0 -25 30 -17 38 3 3 5 0 5 -7
0 -7 5 -9 11 -6 6 5 4 12 -8 20 -22 16 -34 10 -26 -12 4 -11 3 -14 -5 -9 -8 5
-10 2 -5 -9 5 -13 7 -14 14 -3 7 10 9 10 10 -2 1 -8 1 -18 0 -22 0 -4 6 -5 13
-2 8 3 19 -3 25 -14 9 -16 7 -19 -12 -17 -38 4 -40 5 -34 12 8 8 -12 34 -22
29 -6 -4 -7 42 -1 54 1 3 2 9 1 13 -1 5 3 6 9 2 5 -3 10 -2 10 3 0 5 10 9 23
8 17 -1 22 -7 21 -28z m40 -25 c-3 -16 -10 -30 -15 -32 -6 -1 -2 -9 8 -16 11
-8 24 -10 34 -4 20 10 30 2 22 -19 -5 -11 -1 -14 13 -10 16 4 19 -1 20 -31 0
-20 -1 -30 -4 -23 -3 10 -7 9 -16 -4 -13 -18 -41 -10 -30 8 4 6 10 5 16 -3 6
-10 7 -7 3 10 -5 15 -3 21 3 17 6 -3 14 -1 18 6 4 7 3 10 -1 5 -5 -4 -17 0
-27 10 -10 9 -21 13 -25 10 -3 -4 -1 -7 7 -7 10 0 10 -4 -1 -17 -10 -11 -10
-14 -1 -9 16 10 16 -9 -1 -23 -19 -15 -28 -2 -16 21 11 20 3 36 -36 71 -14 12
-16 17 -5 15 10 -2 14 4 13 17 -1 16 11 34 24 35 1 0 -1 -12 -3 -27z"/>
<path d="M3150 4124 c0 -8 5 -12 10 -9 6 3 10 10 10 16 0 5 -4 9 -10 9 -5 0
-10 -7 -10 -16z"/>
<path d="M966 4101 c-10 -16 6 -42 23 -39 9 2 17 13 19 26 3 16 -2 22 -17 22
-11 0 -22 -4 -25 -9z"/>
<path d="M2288 4103 c-10 -19 -1 -38 17 -38 13 0 20 7 20 20 0 19 -29 34 -37
18z"/>
<path d="M857 4075 c-15 -6 -24 -14 -21 -18 4 -4 0 -7 -9 -7 -9 0 -17 -5 -17
-11 0 -5 6 -7 13 -4 6 4 5 1 -4 -7 -20 -16 -21 -48 -1 -41 10 4 11 8 2 13 -9
5 -6 10 9 15 12 3 19 11 16 16 -4 5 2 6 12 2 15 -6 16 -4 5 9 -15 19 -1 27 41
23 16 -2 25 1 21 7 -3 5 -12 7 -19 4 -8 -3 -15 -1 -17 3 -2 4 -15 3 -31 -4z"/>
<path d="M2668 4078 c-29 -22 -27 -72 3 -88 28 -16 64 -5 75 22 14 32 7 53
-22 67 -31 14 -36 14 -56 -1z"/>
<path d="M3790 4080 c0 -8 -3 -10 -7 -7 -11 12 -42 -24 -36 -41 4 -9 2 -13 -4
-9 -7 5 -10 -2 -9 -16 3 -24 25 -70 26 -53 0 6 7 1 15 -10 13 -16 14 -16 9 -1
-5 13 -2 16 10 11 9 -3 14 -10 11 -14 -9 -15 49 0 61 15 6 8 15 11 20 7 4 -4
2 1 -5 11 -13 16 -9 21 14 18 6 -1 3 4 -5 11 -8 7 -16 20 -18 28 -2 8 -10 19
-18 23 -8 5 -12 12 -9 17 3 4 -3 7 -12 5 -10 -1 -24 2 -30 8 -9 6 -13 6 -13
-3z m57 -32 c23 -21 27 -54 6 -62 -13 -5 -13 -9 -2 -24 7 -9 9 -14 5 -10 -5 4
-15 3 -22 -3 -10 -9 -15 -7 -20 4 -3 9 -14 14 -25 12 -18 -4 -49 18 -49 35 0
5 7 13 16 18 12 7 13 11 5 17 -20 12 6 32 38 31 16 -1 38 -9 48 -18z"/>
<path d="M3765 4049 c-3 -4 0 -11 6 -15 9 -5 7 -11 -6 -21 -15 -10 -16 -16 -6
-26 6 -6 21 -13 32 -13 37 -3 40 -4 33 -16 -4 -7 -3 -8 5 -4 6 4 8 12 5 18 -4
6 -1 14 7 18 18 12 19 37 2 52 -18 14 -71 19 -78 7z m45 -10 c0 -6 -4 -8 -8
-5 -5 3 -9 -1 -9 -8 0 -11 4 -12 18 -3 10 6 15 16 12 22 -3 5 0 4 7 -2 15 -14
23 -46 10 -38 -4 3 -10 -1 -13 -9 -4 -10 -37 -14 -66 -7 -2 1 3 9 12 19 11 12
13 22 7 28 -6 6 -3 10 10 11 11 1 20 -3 20 -8z"/>
<path d="M3820 4015 c-7 -9 -11 -17 -9 -20 3 -2 10 5 17 15 14 24 10 26 -8 5z"/>
<path d="M3776 4002 c-3 -5 1 -9 9 -9 8 0 12 4 9 9 -3 4 -7 8 -9 8 -2 0 -6 -4
-9 -8z"/>
<path d="M870 4050 c0 -5 5 -10 10 -10 6 0 10 5 10 10 0 6 -4 10 -10 10 -5 0
-10 -4 -10 -10z"/>
<path d="M904 4049 c-3 -5 -22 -18 -42 -30 -20 -11 -29 -18 -19 -15 12 4 16 2
11 -5 -4 -7 -1 -10 7 -7 8 3 13 11 11 17 -1 7 2 10 8 6 8 -5 7 -11 -1 -21 -6
-8 -7 -14 -2 -14 5 0 16 9 26 20 22 26 51 17 34 -10 -8 -14 -14 -16 -24 -8
-10 8 -13 6 -10 -13 2 -12 10 -25 18 -27 8 -3 11 -1 7 3 -5 5 0 14 11 21 16
11 19 31 12 75 -2 11 -41 18 -47 8z m11 -19 c-3 -5 -12 -10 -18 -10 -7 0 -6 4
3 10 19 12 23 12 15 0z"/>
<path d="M2475 4040 c-3 -5 -1 -10 4 -10 6 0 11 5 11 10 0 6 -2 10 -4 10 -3 0
-8 -4 -11 -10z"/>
<path d="M1715 4015 c-36 -35 -15 -85 34 -85 34 0 51 17 51 51 0 49 -50 70
-85 34z"/>
<path d="M2035 4019 c-3 -4 2 -6 10 -5 21 3 28 13 10 13 -9 0 -18 -4 -20 -8z"/>
<path d="M2810 4012 c0 -26 10 -33 31 -21 22 12 14 39 -12 39 -12 0 -19 -7
-19 -18z"/>
<path d="M915 4000 c-3 -5 -1 -10 4 -10 6 0 11 5 11 10 0 6 -2 10 -4 10 -3 0
-8 -4 -11 -10z"/>
<path d="M2925 3983 c-14 -20 -15 -30 -6 -50 6 -13 16 -21 21 -18 6 3 10 1 10
-4 0 -6 5 -11 11 -11 5 0 8 4 5 8 -3 5 5 8 17 8 17 -1 23 5 25 30 5 54 -55 81
-83 37z"/>
<path d="M820 3980 c-8 -5 -23 -7 -33 -4 -10 3 -28 -1 -41 -10 -21 -13 -24
-25 -17 -70 0 -4 8 -5 17 -2 8 3 13 2 9 -3 -7 -12 15 -19 37 -13 15 4 31 31
33 56 0 13 25 20 25 7 0 -6 11 -10 25 -9 33 3 28 29 -9 46 -33 14 -28 14 -46
2z m54 -27 c4 -11 1 -11 -14 -3 -11 6 -25 8 -30 5 -5 -3 -11 -2 -14 3 -3 5 8
8 24 8 16 0 32 -6 34 -13z"/>
<path d="M2010 3979 c0 -5 5 -7 10 -4 6 3 10 8 10 11 0 2 -4 4 -10 4 -5 0 -10
-5 -10 -11z"/>
<path d="M3936 3978 c3 -5 10 -6 15 -3 13 9 11 12 -6 12 -8 0 -12 -4 -9 -9z"/>
<path d="M3076 3968 c3 -5 10 -6 15 -3 13 9 11 12 -6 12 -8 0 -12 -4 -9 -9z"/>
<path d="M3060 3956 c14 -18 13 -18 -8 -12 -14 5 -22 3 -22 -4 0 -6 5 -8 10
-5 16 10 12 -31 -5 -45 -8 -7 -12 -17 -9 -22 7 -11 19 -2 19 15 0 5 6 12 14
15 9 3 11 0 6 -8 -4 -7 2 -18 15 -27 12 -8 19 -21 16 -30 -3 -8 -1 -11 5 -8 5
4 7 15 4 26 -5 15 -3 18 12 12 17 -7 17 -6 1 11 -10 9 -18 23 -18 29 0 7 8 3
17 -8 11 -14 14 -15 10 -4 -3 9 0 22 6 28 15 15 32 14 20 -1 -11 -15 -9 -55 2
-66 5 -4 6 0 2 9 -3 9 0 22 6 28 8 8 7 11 -3 11 -13 0 -13 2 0 10 13 8 11 13
-11 36 -23 23 -29 24 -47 13 -17 -11 -24 -10 -39 2 -17 13 -17 13 -3 -5z m75
-6 c4 -6 1 -18 -6 -26 -14 -17 -26 -10 -13 9 5 7 1 4 -9 -6 -11 -12 -15 -27
-11 -40 4 -12 2 -18 -6 -15 -6 2 -12 8 -12 13 0 6 -4 15 -10 22 -12 15 0 36
17 29 7 -2 16 2 19 10 6 16 22 18 31 4z"/>
<path d="M1482 3943 c-45 -19 -59 -58 -36 -104 23 -45 85 -54 123 -18 19 18
22 29 18 61 -8 60 -49 84 -105 61z"/>
<path d="M1054 3934 c5 -13 3 -14 -7 -6 -14 12 -41 1 -43 -18 -1 -5 -2 -11 -3
-12 -2 -2 -4 -13 -7 -25 -3 -16 4 -28 21 -39 14 -9 23 -19 20 -23 -2 -4 2 -8
9 -8 8 0 12 6 10 12 -6 14 26 16 42 4 7 -6 17 -3 25 8 9 11 10 14 2 9 -7 -4
-13 -2 -13 3 0 6 7 11 15 11 10 0 14 8 11 23 -2 12 -9 21 -15 20 -6 -2 -11 2
-11 7 0 6 5 10 11 10 5 0 7 5 3 11 -4 8 -9 7 -15 -2 -8 -14 -10 -12 -13 13 0
6 -12 13 -25 15 -18 2 -22 0 -17 -13z m30 -5 c-2 -4 0 -10 6 -14 6 -4 8 -11 5
-16 -5 -8 7 -13 26 -11 3 1 6 -6 6 -13 0 -10 -4 -12 -12 -5 -9 7 -11 1 -10
-22 2 -29 1 -30 -12 -12 -8 11 -17 15 -21 9 -9 -13 -42 -18 -42 -7 0 8 7 10
51 14 16 2 17 5 7 13 -17 13 -21 35 -6 35 6 0 9 3 6 6 -4 3 -15 1 -25 -4 -13
-7 -24 -6 -36 3 -15 11 -15 13 -3 18 9 4 18 2 21 -3 9 -15 28 -12 22 3 -3 8 1
14 9 14 7 0 11 -4 8 -8z m-28 -42 c6 2 11 -3 11 -11 0 -8 -4 -13 -9 -10 -4 3
-8 0 -8 -7 0 -7 -3 -9 -7 -6 -3 4 -12 2 -20 -4 -9 -9 -13 -8 -14 0 -1 6 -2 17
-3 24 -4 21 4 27 22 18 9 -4 22 -7 28 -4z"/>
<path d="M1013 3875 c0 -8 4 -12 9 -9 5 3 6 10 3 15 -9 13 -12 11 -12 -6z"/>
<path d="M3846 3902 c-3 -5 1 -9 9 -9 8 0 12 4 9 9 -3 4 -7 8 -9 8 -2 0 -6 -4
-9 -8z"/>
<path d="M3896 3902 c-3 -4 4 -9 15 -9 23 -2 25 3 4 10 -8 4 -16 3 -19 -1z"/>
<path d="M3045 3850 c-4 -6 1 -7 11 -3 13 5 15 3 9 -7 -5 -9 -4 -11 4 -6 6 4
9 12 6 17 -8 12 -22 12 -30 -1z"/>
<path d="M655 3820 c-3 -5 -1 -10 4 -10 6 0 11 5 11 10 0 6 -2 10 -4 10 -3 0
-8 -4 -11 -10z"/>
<path d="M3291 3794 c-11 -25 -7 -63 7 -65 4 0 16 -2 26 -4 24 -5 59 13 51 26
-4 5 -1 9 5 9 6 0 5 11 -5 30 -21 40 -66 42 -84 4z m55 -16 c3 -4 -1 -5 -10
-4 -8 1 -18 5 -22 8 -3 4 1 5 10 4 8 -1 18 -5 22 -8z"/>
<path d="M595 3780 c6 -30 16 -40 12 -12 -2 12 -6 24 -10 28 -3 4 -4 -4 -2
-16z"/>
<path d="M1265 3789 c-4 -5 -11 -6 -17 -3 -7 4 -8 2 -4 -5 4 -6 12 -8 18 -5 7
4 8 2 4 -4 -5 -9 -13 -9 -26 -2 -15 8 -21 6 -28 -7 -14 -27 -8 -82 11 -100 16
-17 91 -28 81 -12 -3 5 2 9 10 9 10 0 13 6 9 15 -3 10 0 15 8 13 8 -2 13 3 12
10 -2 6 2 12 9 12 9 0 9 3 0 12 -9 9 -15 9 -24 -1 -11 -11 -10 -12 1 -6 10 5
12 4 7 -4 -4 -6 -12 -8 -18 -5 -6 4 -8 3 -5 -2 11 -19 -12 -37 -49 -40 -21 -1
-32 1 -25 6 9 5 9 10 3 14 -6 3 -12 3 -15 -1 -2 -5 -2 -2 0 5 1 7 -1 11 -5 8
-4 -2 -8 4 -9 14 -1 11 2 22 7 25 5 3 6 13 3 23 -5 14 -2 13 11 -3 10 -11 14
-14 10 -6 -4 9 -3 12 4 8 5 -4 17 -4 26 -1 14 5 14 9 4 23 -12 15 -11 15 6 1
11 -8 21 -14 23 -12 14 10 13 -2 -2 -18 -10 -11 -13 -20 -7 -20 6 0 13 4 17
10 3 5 13 6 22 3 12 -5 9 2 -7 19 -29 29 -57 41 -65 27z"/>
<path d="M1280 3750 c-14 -11 -30 -18 -37 -15 -24 8 -25 -17 -2 -38 23 -21 59
-31 59 -15 0 18 2 24 13 38 7 9 3 7 -8 -5 -23 -23 -52 -26 -47 -5 2 8 15 25
30 37 33 28 26 30 -8 3z"/>
<path d="M3800 3763 c-8 -3 -26 -17 -40 -31 -18 -18 -20 -23 -7 -18 11 3 16 2
12 -4 -3 -6 -13 -10 -20 -10 -10 0 -14 -11 -13 -35 1 -19 5 -35 10 -35 5 0 7
-4 4 -9 -7 -11 33 -47 61 -55 12 -4 28 -20 35 -36 14 -31 45 -51 74 -45 11 2
25 4 31 4 16 1 43 53 43 81 0 12 -12 32 -27 47 -16 14 -27 31 -25 39 3 17 -26
89 -34 81 -3 -3 -14 3 -25 14 -19 19 -49 23 -79 12z m4 -41 c3 -5 -1 -9 -9 -9
-8 0 -12 4 -9 9 3 4 7 8 9 8 2 0 6 -4 9 -8z m83 -18 c-3 -3 -12 -4 -19 -1 -8
3 -5 6 6 6 11 1 17 -2 13 -5z m-104 -19 c-3 -9 -8 -14 -10 -11 -3 3 -2 9 2 15
9 16 15 13 8 -4z m123 0 c-1 -8 -5 -17 -8 -21 -5 -4 -4 16 1 34 3 9 9 -1 7
-13z m-45 -12 c13 -16 12 -17 -3 -4 -17 13 -22 21 -14 21 2 0 10 -8 17 -17z
m-50 -10 c13 -16 12 -17 -3 -4 -17 13 -22 21 -14 21 2 0 10 -8 17 -17z m-11
-18 c0 -1 -6 -7 -13 -13 -10 -8 -13 -6 -13 7 0 11 6 17 13 14 7 -3 13 -6 13
-8z m43 0 c-3 -9 -8 -14 -10 -11 -3 3 -2 9 2 15 9 16 15 13 8 -4z"/>
<path d="M573 3727 c0 -7 9 -14 20 -14 11 -1 18 -1 16 0 -2 2 -11 8 -20 15
-12 9 -16 9 -16 -1z"/>
<path d="M1267 3716 c-4 -10 -1 -13 9 -9 15 6 19 23 5 23 -5 0 -11 -7 -14 -14z"/>
<path d="M3446 3695 c-5 -14 2 -25 16 -25 4 0 8 7 8 16 0 9 5 12 13 8 6 -4 8
-3 4 1 -12 14 -35 14 -41 0z"/>
<path d="M4133 3645 c0 -8 5 -11 10 -8 6 4 8 0 5 -8 -4 -10 1 -15 15 -17 17
-1 19 1 7 8 -14 9 -7 14 13 11 5 -1 6 3 2 9 -3 6 -11 8 -16 4 -5 -3 -16 -1
-23 5 -9 8 -13 7 -13 -4z"/>
<path d="M4245 3619 c-4 -6 -4 -13 -1 -16 3 -4 6 -1 6 6 0 7 5 9 12 5 7 -4 8
-3 4 4 -9 15 -13 15 -21 1z"/>
<path d="M4113 3595 c0 -8 4 -12 9 -9 4 3 8 9 8 15 0 5 -4 9 -8 9 -5 0 -9 -7
-9 -15z"/>
<path d="M4200 3600 c-8 -5 -10 -10 -5 -10 6 0 17 5 25 10 8 5 11 10 5 10 -5
0 -17 -5 -25 -10z"/>
<path d="M4081 3569 c12 -24 26 -31 26 -14 0 8 -5 11 -10 8 -6 -4 -8 0 -5 9 4
8 0 15 -7 15 -10 0 -11 -5 -4 -18z"/>
<path d="M4228 3572 c3 -9 1 -13 -5 -9 -5 3 -10 0 -10 -8 0 -9 4 -11 11 -6 6
5 19 7 28 6 10 -2 20 1 23 5 3 5 -4 7 -16 5 -14 -3 -19 0 -16 9 3 7 -1 13 -8
13 -8 0 -11 -7 -7 -15z"/>
<path d="M4135 3500 c3 -5 8 -10 11 -10 2 0 4 5 4 10 0 6 -5 10 -11 10 -5 0
-7 -4 -4 -10z"/>
<path d="M599 3423 c-24 -6 -38 -44 -26 -70 6 -13 14 -24 19 -24 4 -1 14 -2
21 -3 21 -3 57 25 57 45 0 11 -9 28 -20 39 -20 20 -23 21 -51 13z"/>
<path d="M4042 3419 c-14 -5 -20 -13 -16 -20 4 -7 3 -9 -4 -5 -13 8 -23 -6
-28 -43 -4 -20 2 -35 22 -54 68 -68 166 10 117 93 -9 17 -23 30 -29 30 -7 0
-18 2 -26 4 -7 3 -23 1 -36 -5z"/>
<path d="M323 3404 c-15 -10 -16 -14 -3 -30 14 -16 13 -17 -5 -10 -11 4 -16 4
-12 -1 5 -4 21 -8 37 -9 31 -2 47 20 30 41 -5 6 -8 14 -5 17 11 10 -27 4 -42
-8z m43 -33 c-5 -8 -13 -8 -27 -1 -23 13 -26 32 -2 23 12 -5 14 -3 8 8 -5 9
-2 8 10 -3 9 -9 14 -21 11 -27z"/>
<path d="M386 3397 c3 -10 9 -15 12 -12 3 3 0 11 -7 18 -10 9 -11 8 -5 -6z"/>
<path d="M3734 3385 c-4 -9 -2 -21 4 -27 15 -15 41 -2 38 19 -4 23 -34 29 -42
8z"/>
<path d="M386 3353 c-6 -14 -5 -15 5 -6 7 7 10 15 7 18 -3 3 -9 -2 -12 -12z"/>
<path d="M334 3338 c-4 -6 -3 -8 4 -4 5 3 12 1 14 -6 3 -8 6 -9 11 -1 4 6 0
13 -8 17 -8 3 -17 0 -21 -6z"/>
<path d="M4332 3297 c-14 -15 -22 -36 -22 -60 0 -31 5 -41 31 -56 68 -41 145
15 118 86 -21 56 -88 72 -127 30z"/>
<path d="M444 3167 c-16 -14 -28 -35 -28 -51 -1 -18 -10 -31 -26 -39 -39 -19
-69 -72 -63 -110 3 -17 11 -39 19 -48 8 -8 15 -26 15 -40 1 -17 3 -19 6 -7 3
13 9 16 21 9 9 -5 28 -8 42 -6 14 1 33 3 42 4 10 0 30 19 44 41 21 31 25 47
20 72 -3 18 -7 39 -8 46 -1 6 -5 12 -10 12 -4 0 -8 5 -8 10 0 6 3 9 8 9 25 -4
33 2 27 22 -4 12 -3 19 2 16 16 -10 12 28 -6 52 -19 24 -47 21 -37 -4 2 -7 -2
-16 -10 -19 -12 -5 -14 -1 -9 17 5 18 4 19 -5 7 -10 -12 -11 -11 -7 8 6 28 4
27 -29 -1z m66 -32 c34 18 52 3 27 -23 -13 -13 -19 -13 -31 -2 -11 8 -16 9
-16 1 0 -6 -5 -11 -11 -11 -5 0 -8 4 -4 9 3 5 0 13 -6 17 -8 4 -9 3 -5 -4 4
-7 3 -12 -2 -12 -17 0 -22 13 -9 29 11 14 10 14 -6 2 -13 -10 -14 -17 -7 -26
7 -9 7 -15 1 -19 -22 -14 -22 34 0 60 11 14 14 12 26 -10 13 -25 15 -26 43
-11z m20 25 c0 -5 -4 -10 -10 -10 -5 0 -10 5 -10 10 0 6 5 10 10 10 6 0 10 -4
10 -10z m-2 -69 c7 -1 11 -5 7 -10 -6 -11 -65 -5 -78 8 -5 5 5 8 25 6 18 -2
39 -3 46 -4z"/>
<path d="M516 3118 c3 -5 10 -6 15 -3 13 9 11 12 -6 12 -8 0 -12 -4 -9 -9z"/>
<path d="M3857 3178 c-19 -15 -31 -58 -16 -58 6 0 8 -4 5 -9 -3 -4 5 -13 17
-18 23 -11 67 -1 67 16 0 5 3 16 6 24 6 17 -28 57 -49 57 -7 0 -21 -6 -30 -12z"/>
<path d="M730 3140 c0 -5 5 -10 11 -10 5 0 7 5 4 10 -3 6 -8 10 -11 10 -2 0
-4 -4 -4 -10z"/>
<path d="M230 3125 c-15 -18 -5 -35 21 -35 12 0 19 7 19 19 0 24 -25 34 -40
16z"/>
<path d="M4166 3113 c-4 -11 -1 -11 15 -3 16 9 26 8 45 -5 24 -15 24 -15 13 3
-13 21 -66 25 -73 5z"/>
<path d="M656 3087 c3 -10 9 -15 12 -12 3 3 0 11 -7 18 -10 9 -11 8 -5 -6z"/>
<path d="M4180 3091 c-8 -6 -19 -7 -25 -4 -5 3 -5 0 2 -7 10 -11 15 -11 29 1
14 12 19 10 34 -8 10 -12 20 -19 24 -16 6 6 -31 43 -43 43 -3 0 -13 -4 -21 -9z"/>
<path d="M790 3076 c7 -7 13 -7 20 0 6 6 3 10 -10 10 -13 0 -16 -4 -10 -10z"/>
<path d="M3924 3059 c-3 -6 -2 -15 4 -21 6 -6 12 -6 17 3 6 8 4 10 -5 4 -10
-6 -12 -4 -7 8 7 19 2 23 -9 6z"/>
<path d="M4185 3059 c-4 -6 -4 -13 -1 -16 3 -4 6 -1 6 5 0 7 5 12 11 12 6 0 8
-7 4 -17 -5 -14 -3 -15 6 -6 12 12 5 33 -11 33 -5 0 -12 -5 -15 -11z"/>
<path d="M790 3039 c0 -5 5 -7 10 -4 6 3 10 8 10 11 0 2 -4 4 -10 4 -5 0 -10
-5 -10 -11z"/>
<path d="M3895 3041 c-3 -5 -2 -12 3 -15 5 -3 9 1 9 9 0 17 -3 19 -12 6z"/>
<path d="M750 3016 c0 -2 8 -10 18 -17 15 -13 16 -12 3 4 -13 16 -21 21 -21
13z"/>
<path d="M4451 2997 c-16 -16 -14 -34 5 -41 21 -8 34 1 34 24 0 22 -23 33 -39
17z"/>
<path d="M186 2984 c16 -13 16 -15 2 -10 -10 3 -18 1 -18 -4 0 -17 15 -18 35
-4 17 13 18 16 5 24 -26 17 -46 12 -24 -6z"/>
<path d="M128 2914 c-15 -8 -30 -25 -32 -37 -14 -69 -13 -76 13 -94 14 -9 26
-15 26 -13 0 2 9 -1 20 -7 30 -16 83 30 90 77 5 38 -7 60 -42 78 -28 15 -42
15 -75 -4z"/>
<path d="M4085 2825 c-66 -66 16 -168 96 -120 66 40 39 145 -37 145 -24 0 -43
-8 -59 -25z"/>
<path d="M4356 2798 c3 -5 10 -6 15 -3 13 9 11 12 -6 12 -8 0 -12 -4 -9 -9z"/>
<path d="M49 2789 c-12 -7 -12 -9 1 -10 8 -1 18 -1 22 0 4 0 4 -7 1 -16 -5
-13 -2 -15 11 -10 10 4 4 -6 -14 -24 -24 -25 -34 -29 -43 -20 -9 9 -8 11 5 6
13 -5 17 -2 15 13 0 12 -5 18 -11 15 -5 -3 -6 -1 -2 6 4 6 12 9 17 6 5 -4 9
-1 9 4 0 16 -27 13 -33 -3 -3 -7 0 -19 6 -25 9 -9 8 -11 -5 -6 -19 7 -25 -9
-9 -20 6 -3 8 -14 6 -25 -2 -10 3 -24 11 -31 8 -6 14 -8 14 -5 0 4 11 -5 24
-19 20 -21 25 -23 30 -9 10 27 7 39 -6 26 -15 -15 -28 -15 -28 0 0 6 3 8 7 5
11 -11 32 14 26 31 -3 11 -2 13 4 6 4 -6 16 -10 26 -8 10 1 14 -2 11 -8 -4 -6
-3 -8 3 -5 5 3 10 0 10 -8 0 -8 -5 -11 -10 -8 -6 3 -7 1 -3 -5 3 -6 1 -14 -5
-18 -7 -4 -9 -3 -5 4 3 6 2 13 -3 16 -14 9 -24 -45 -10 -58 9 -8 10 -8 4 2 -7
13 23 44 36 36 4 -2 14 5 24 16 10 11 14 20 9 20 -5 0 -2 5 6 11 13 9 13 10
-2 6 -18 -6 -33 19 -18 28 6 4 10 1 10 -4 0 -6 6 -11 14 -11 13 0 15 33 6 60
-2 3 -2 9 0 15 1 5 -7 2 -17 -7 -12 -11 -23 -14 -33 -8 -8 5 -17 7 -21 4 -4
-2 -12 3 -19 11 -10 12 -16 13 -27 4 -11 -9 -12 -9 -8 3 7 19 -16 30 -36 17z
m91 -45 c0 4 8 2 18 -3 13 -7 23 -6 30 1 7 7 12 10 13 8 0 -3 2 -16 3 -29 3
-21 1 -22 -9 -7 -11 15 -13 15 -19 1 -3 -9 -10 -13 -16 -10 -5 3 -10 1 -10 -4
0 -6 3 -11 8 -11 4 0 13 -9 19 -19 10 -15 9 -22 -2 -31 -12 -10 -13 -8 -10 9
4 19 -8 33 -30 37 -5 1 -17 3 -25 5 -10 3 -15 -3 -15 -16 0 -16 -7 -20 -30
-20 -41 0 -39 22 7 64 20 19 34 39 31 45 -4 6 3 2 15 -8 12 -11 22 -16 22 -12z"/>
<path d="M76 2710 c-20 -22 -36 -41 -36 -43 0 -2 11 -3 24 -3 14 0 22 4 20 8
-3 5 -10 5 -16 2 -6 -4 -9 -1 -6 7 3 8 10 15 16 15 7 1 13 2 15 4 10 8 37 6
37 -3 0 -17 10 -2 15 23 2 12 2 20 -2 16 -3 -3 -12 -1 -18 4 -9 7 -23 -1 -49
-30z m53 16 c10 -12 9 -14 -6 -11 -10 1 -25 -3 -33 -9 -8 -6 -6 -1 4 12 23 26
21 26 35 8z"/>
<path d="M316 2774 c-22 -21 -20 -46 4 -67 22 -18 55 -24 45 -7 -3 5 0 7 8 4
8 -3 18 5 24 18 22 49 -43 91 -81 52z m33 -7 c8 -10 7 -14 -2 -14 -8 0 -14 6
-14 14 0 7 1 13 2 13 2 0 8 -6 14 -13z m31 -21 c0 -2 -8 -10 -17 -17 -16 -13
-17 -12 -4 4 13 16 21 21 21 13z"/>
<path d="M626 2760 c12 -12 7 -50 -6 -50 -4 0 -15 9 -25 20 -19 21 -7 28 13 8
8 -8 12 -8 12 -1 0 14 -28 25 -42 17 -5 -3 0 -16 13 -30 12 -13 19 -27 15 -31
-4 -4 -11 -1 -16 7 -6 9 -10 10 -10 3 0 -21 21 -26 39 -9 10 9 24 15 32 13 8
-2 11 -2 6 0 -4 3 -4 10 -1 15 4 7 2 8 -4 4 -7 -4 -12 -3 -12 3 0 5 5 11 10
13 6 2 0 9 -12 17 -14 8 -18 9 -12 1z"/>
<path d="M4335 2740 c-3 -5 -1 -10 4 -10 6 0 11 5 11 10 0 6 -2 10 -4 10 -3 0
-8 -4 -11 -10z"/>
<path d="M670 2731 c0 -6 4 -13 10 -16 6 -3 7 1 4 9 -7 18 -14 21 -14 7z"/>
<path d="M556 2715 c4 -8 8 -15 10 -15 2 0 4 7 4 15 0 8 -4 15 -10 15 -5 0 -7
-7 -4 -15z"/>
<path d="M671 2691 c-8 -5 -19 -7 -26 -5 -6 3 -18 -2 -25 -11 -7 -9 -8 -15 -2
-15 6 0 12 6 15 13 2 6 8 9 12 4 5 -4 3 -13 -3 -19 -13 -13 -72 -19 -72 -6 0
4 -5 8 -11 8 -8 0 -7 -5 1 -15 7 -9 15 -13 18 -11 2 3 11 -2 19 -10 13 -13 18
-11 42 13 14 16 25 30 24 32 -2 2 5 10 15 17 19 15 14 18 -7 5z m-51 -61 c0
-5 -2 -10 -4 -10 -3 0 -8 5 -11 10 -3 6 -1 10 4 10 6 0 11 -4 11 -10z"/>
<path d="M540 2680 c0 -5 6 -7 14 -4 8 3 17 1 21 -5 3 -6 11 -11 18 -11 15 0
-25 29 -40 30 -7 0 -13 -4 -13 -10z"/>
<path d="M4385 2680 c3 -8 20 -23 38 -33 l32 -19 -20 22 c-11 12 -18 24 -17
27 2 3 0 8 -4 11 -4 4 -4 1 0 -5 4 -7 3 -13 -1 -13 -5 0 -15 6 -22 13 -10 10
-11 9 -6 -3z"/>
<path d="M4364 2671 c5 -7 0 -19 -10 -27 -18 -14 -18 -14 4 -4 24 12 28 25 10
36 -7 5 -8 3 -4 -5z"/>
<path d="M116 2662 c-3 -5 1 -9 9 -9 8 0 12 4 9 9 -3 4 -7 8 -9 8 -2 0 -6 -4
-9 -8z"/>
<path d="M649 2633 c-13 -17 -13 -17 6 -3 11 8 22 16 24 17 2 2 0 3 -6 3 -6 0
-17 -8 -24 -17z"/>
<path d="M4371 2631 c-17 -13 -19 -18 -7 -18 8 0 18 7 21 15 5 12 8 12 25 -3
11 -10 22 -16 25 -13 3 3 -5 12 -18 21 -21 14 -25 13 -46 -2z"/>
<path d="M4387 2607 c-3 -8 1 -14 9 -14 16 0 19 13 5 21 -5 3 -11 0 -14 -7z"/>
<path d="M311 2601 c-19 -12 -6 -43 16 -39 10 2 18 12 18 22 0 22 -14 29 -34
17z"/>
<path d="M4157 2592 c-24 -26 -21 -59 7 -77 49 -33 103 22 70 72 -18 28 -55
30 -77 5z"/>
<path d="M85 2580 c-3 -5 -1 -18 5 -27 9 -15 10 -14 4 6 -4 17 -3 21 6 16 9
-5 11 -4 6 3 -9 15 -13 15 -21 2z"/>
<path d="M66 2523 c-4 -5 -13 -8 -19 -8 -7 0 -13 -13 -15 -29 -2 -18 0 -26 7
-21 6 3 9 11 6 16 -7 10 3 12 48 11 25 -1 27 1 15 16 -12 15 -11 16 4 3 10 -7
16 -16 14 -20 -3 -4 5 -7 16 -7 18 0 18 2 -7 23 -28 24 -45 29 -45 13 0 -5 -5
-10 -11 -10 -5 0 -7 5 -4 10 7 12 2 13 -9 3z"/>
<path d="M1357 2495 c-3 -5 -4 -63 -3 -128 0 -64 -2 -117 -5 -117 -4 0 -22 13
-40 30 -29 25 -40 29 -69 24 -19 -4 -39 -9 -43 -11 -15 -9 15 -33 42 -33 17 0
42 -15 72 -43 25 -23 55 -51 67 -61 l22 -19 0 184 c0 177 -1 185 -20 185 -11
0 -21 -5 -23 -11z"/>
<path d="M1612 2502 l-22 -3 2 -182 3 -181 103 0 c111 -1 128 3 119 28 -5 13
-23 16 -92 16 -61 0 -85 4 -86 13 -6 92 -4 108 17 113 11 3 24 4 30 3 5 -1 24
-1 42 0 25 1 32 5 32 21 0 18 -7 20 -60 20 l-60 0 0 55 0 55 90 0 c83 0 90 1
90 20 0 11 -3 20 -7 21 -23 3 -181 4 -201 1z"/>
<path d="M2009 2500 c0 -3 -2 -85 -2 -182 -2 -201 -9 -187 91 -182 93 5 123
27 138 103 5 26 -24 79 -46 86 -21 7 -21 7 -2 21 25 17 36 74 21 107 -6 14
-25 31 -41 38 -29 12 -157 20 -159 9z m149 -52 c14 -14 16 -57 3 -77 -5 -7
-32 -16 -60 -19 l-51 -5 0 57 0 56 48 0 c26 0 53 -5 60 -12z m16 -157 c25 -21
20 -78 -7 -96 -24 -16 -83 -26 -104 -18 -9 4 -13 27 -13 70 l0 65 54 -4 c30
-3 62 -10 70 -17z"/>
<path d="M2421 2500 c-10 -5 -12 -42 -9 -146 2 -113 6 -144 21 -165 36 -53
130 -67 191 -30 54 34 59 58 57 263 -1 81 -2 86 -21 81 -22 -6 -22 -11 -21
-158 1 -43 -4 -94 -9 -111 -13 -39 -55 -59 -105 -50 -57 11 -65 33 -65 182 0
134 -6 155 -39 134z"/>
<path d="M2876 2500 c-1 -3 -2 -86 -2 -185 l1 -180 105 0 c122 -1 130 1 130
26 0 17 -8 19 -95 19 l-95 0 0 163 c0 158 -1 163 -21 163 -11 0 -22 -3 -23 -6z"/>
<path d="M1070 2322 c0 -169 1 -180 19 -185 26 -6 27 -1 27 135 -1 65 0 118 2
118 2 0 20 -14 41 -31 33 -26 44 -29 75 -23 46 8 46 37 1 42 -20 3 -54 25 -97
64 l-68 60 0 -180z"/>
<path d="M3361 2378 l-63 -121 28 7 c78 19 194 58 194 65 0 9 -77 152 -88 163
-4 4 -36 -47 -71 -114z m89 2 c7 -17 11 -32 9 -34 -2 -3 -21 -7 -43 -11 l-38
-8 23 42 c13 22 27 41 30 41 4 0 12 -14 19 -30z"/>
<path d="M4450 2493 c-54 -20 -66 -78 -25 -118 13 -14 33 -25 44 -25 32 0 74
42 74 75 0 19 -10 37 -27 52 -27 23 -39 26 -66 16z"/>
<path d="M55 2470 c-5 -15 -12 -19 -26 -15 -11 4 -19 2 -19 -5 0 -6 4 -9 9 -6
5 4 11 1 13 -6 3 -8 12 -1 23 15 10 15 15 30 12 33 -3 3 -8 -4 -12 -16z"/>
<path d="M66 2455 c-15 -19 -32 -33 -37 -30 -16 11 -10 -12 8 -26 9 -8 14 -9
10 -2 -11 18 22 45 47 37 17 -5 19 -4 9 7 -7 7 -13 18 -13 24 0 5 5 3 10 -5 9
-13 10 -13 10 0 0 13 1 13 10 0 13 -20 -8 -42 -33 -34 -13 4 -17 2 -13 -5 4
-6 2 -10 -4 -9 -7 2 -14 -7 -16 -19 -3 -17 1 -23 14 -23 14 0 15 -2 2 -10 -10
-7 -11 -10 -2 -10 7 0 15 6 18 14 3 8 12 12 20 9 8 -3 12 -8 10 -12 -3 -4 0
-13 5 -21 7 -11 8 -7 5 13 -4 22 0 30 17 36 12 5 28 6 35 3 8 -3 1 8 -14 23
-26 27 -27 28 -9 41 20 15 21 15 -32 17 -10 1 -21 5 -24 10 -3 4 -18 -8 -33
-28z m29 -55 c-3 -5 -12 -10 -18 -10 -7 0 -6 4 3 10 19 12 23 12 15 0z"/>
<path d="M335 2460 c3 -5 8 -10 11 -10 2 0 4 5 4 10 0 6 -5 10 -11 10 -5 0 -7
-4 -4 -10z"/>
<path d="M300 2446 c0 -2 7 -6 15 -10 8 -3 15 -1 15 4 0 6 -7 10 -15 10 -8 0
-15 -2 -15 -4z"/>
<path d="M152 2364 c-7 -8 -8 -14 -3 -14 10 0 25 19 20 25 -2 1 -10 -3 -17
-11z"/>
<path d="M190 2368 c0 -7 4 -19 9 -27 7 -10 9 -7 8 12 -2 26 -17 39 -17 15z"/>
<path d="M36 2351 c4 -15 2 -21 -4 -17 -6 4 -8 -2 -4 -16 l5 -22 9 23 c5 14 4
29 -2 39 -9 14 -10 12 -4 -7z"/>
<path d="M265 2362 c-11 -11 -4 -17 19 -18 16 -1 23 3 20 10 -5 13 -29 17 -39
8z"/>
<path d="M310 2362 c0 -6 9 -12 20 -15 11 -3 20 -3 20 -1 0 2 -9 8 -20 14 -11
6 -20 7 -20 2z"/>
<path d="M4333 2363 c-18 -7 -16 -40 1 -46 19 -7 40 18 32 38 -6 15 -12 17
-33 8z"/>
<path d="M77 2338 c-14 -12 -14 -15 -2 -32 8 -11 15 -15 15 -10 0 6 -5 15 -11
21 -7 7 -6 12 5 16 10 4 16 1 16 -8 0 -8 5 -15 10 -15 7 0 7 6 0 20 -13 24
-12 23 -33 8z"/>
<path d="M156 2335 c-11 -8 -15 -15 -10 -15 6 0 15 5 22 12 14 14 16 -3 2 -20
-7 -9 -7 -9 1 -3 8 7 17 3 29 -11 13 -17 17 -18 17 -5 0 9 -4 14 -9 11 -4 -3
-8 -1 -8 3 0 5 -6 17 -12 26 -12 14 -15 14 -32 2z"/>
<path d="M270 2325 c0 -8 5 -15 10 -15 6 0 10 7 10 15 0 8 -4 15 -10 15 -5 0
-10 -7 -10 -15z"/>
<path d="M296 2318 c-15 -23 -16 -23 -31 -4 -13 17 -15 18 -15 3 0 -9 5 -17
11 -17 5 0 8 -4 5 -9 -11 -17 54 -24 71 -7 10 10 9 42 -1 48 -17 12 -22 10
-40 -14z m39 -18 c-3 -4 -13 -10 -24 -13 -13 -3 -18 -1 -14 9 2 7 12 10 21 6
15 -5 16 -4 2 14 -14 18 -14 18 2 5 10 -7 16 -17 13 -21z"/>
<path d="M52 2299 c3 -8 -2 -20 -11 -27 -14 -11 -13 -11 7 -2 24 12 28 25 11
36 -7 4 -10 1 -7 -7z"/>
<path d="M116 2295 c-11 -8 -15 -15 -10 -15 6 0 19 7 30 15 10 8 15 14 9 14
-5 0 -19 -6 -29 -14z"/>
<path d="M137 2278 c-7 -5 3 -6 22 -3 30 5 33 4 21 -10 -8 -10 -9 -15 -1 -15
6 0 11 5 11 11 0 5 6 7 13 3 9 -6 8 -3 -1 8 -14 17 -44 20 -65 6z"/>
<path d="M3405 2252 c-120 -35 -131 -40 -149 -71 -16 -28 -17 -34 -5 -42 10
-6 20 -2 34 15 14 16 53 33 128 55 60 18 110 31 112 29 1 -2 12 -21 23 -44 24
-48 49 -71 62 -58 9 9 -57 155 -69 153 -3 0 -64 -17 -136 -37z"/>
<path d="M75 2269 c-4 -6 -5 -12 -2 -15 2 -3 7 2 10 11 7 17 1 20 -8 4z"/>
<path d="M94 2256 c-4 -11 -14 -16 -25 -13 -11 3 -17 1 -13 -4 3 -5 13 -9 22
-9 15 -1 14 -3 -3 -16 -20 -16 -20 -16 3 -9 13 4 22 2 22 -4 0 -11 -13 -15
-40 -11 -11 1 -12 -1 -4 -10 9 -9 17 -9 33 -1 12 7 21 16 21 20 0 11 19 9 40
-4 8 -5 6 2 -5 14 -11 13 -19 25 -17 27 1 2 2 10 2 17 0 6 -5 4 -11 -5 -5 -10
-15 -18 -21 -18 -7 0 -6 6 2 15 7 9 10 18 7 22 -4 3 -10 -2 -13 -11z m33 -29
c0 -8 -6 -14 -14 -14 -9 0 -10 4 -2 14 6 7 12 13 14 13 1 0 2 -6 2 -13z"/>
<path d="M153 2241 c0 -11 5 -18 9 -15 4 3 5 11 1 19 -7 21 -12 19 -10 -4z"/>
<path d="M392 2224 c-25 -17 -28 -33 -9 -57 16 -22 61 -32 53 -12 -3 8 0 17 6
21 7 4 8 3 4 -4 -4 -7 -2 -12 3 -12 10 0 13 7 10 28 -1 4 -6 6 -12 4 -6 -2 -5
3 2 12 10 12 9 17 -8 25 -25 14 -22 14 -49 -5z m34 -19 c-1 -13 -6 -28 -10
-32 -5 -4 -6 -3 -3 3 4 7 0 14 -8 18 -8 3 -15 11 -14 18 0 10 2 10 6 1 5 -14
24 -18 22 -5 -2 10 0 22 4 22 2 0 3 -11 3 -25z"/>
<path d="M27 2197 l-17 -32 20 24 c17 20 26 41 18 41 -2 0 -11 -15 -21 -33z"/>
<path d="M4540 2200 c-24 -24 -26 -53 -4 -74 31 -32 84 -11 84 33 0 47 -49 72
-80 41z"/>
<path d="M4238 2198 c11 -14 10 -18 -6 -27 -12 -6 -23 -7 -30 -1 -9 7 -9 7 -2
-2 6 -7 6 -16 -1 -25 -19 -22 -1 -14 28 13 23 21 29 23 31 10 5 -23 18 -20 18
4 0 10 -2 17 -5 15 -2 -3 -14 3 -25 12 -18 16 -19 16 -8 1z"/>
<path d="M4210 2190 c0 -5 5 -10 11 -10 5 0 7 5 4 10 -3 6 -8 10 -11 10 -2 0
-4 -4 -4 -10z"/>
<path d="M130 2181 c0 -6 5 -11 11 -11 8 0 7 -5 -1 -15 -7 -9 -10 -18 -7 -21
3 -3 10 3 16 14 8 15 7 23 -4 32 -11 9 -15 9 -15 1z"/>
<path d="M112 2160 c0 -14 2 -19 5 -12 2 6 2 18 0 25 -3 6 -5 1 -5 -13z"/>
<path d="M40 2160 c8 -5 20 -10 25 -10 6 0 3 5 -5 10 -8 5 -19 10 -25 10 -5 0
-3 -5 5 -10z"/>
<path d="M28 2143 c6 -2 12 -9 12 -14 0 -6 -6 -7 -12 -3 -7 4 -10 4 -6 0 3 -4
10 -8 15 -8 4 -1 13 -7 18 -14 11 -13 55 -2 55 15 0 14 -31 22 -45 11 -9 -8
-14 -6 -19 5 -3 8 -11 15 -18 14 -10 0 -10 -2 0 -6z m66 -22 c3 -5 -3 -11 -14
-14 -20 -5 -26 3 -13 16 9 10 21 9 27 -2z"/>
<path d="M4221 2132 c-7 -14 -7 -19 4 -19 7 0 11 6 8 14 -3 7 0 13 5 13 6 0
13 -7 15 -15 4 -12 5 -11 3 1 -2 25 -23 28 -35 6z"/>
<path d="M4422 2088 c-14 -14 2 -48 22 -48 21 0 27 28 10 45 -18 18 -17 18
-32 3z"/>
<path d="M377 2013 c-10 -9 -9 -23 1 -23 5 0 9 7 9 15 0 17 -1 18 -10 8z"/>
<path d="M426 2002 c-2 -4 4 -8 14 -8 10 0 16 4 14 8 -3 4 -9 8 -14 8 -5 0
-11 -4 -14 -8z"/>
<path d="M78 1962 c-12 -8 -25 -17 -27 -18 -1 -1 -5 -19 -8 -38 -9 -70 74
-109 128 -60 22 20 25 72 7 97 -21 28 -72 38 -100 19z m27 -62 c3 -5 1 -10 -4
-10 -6 0 -11 5 -11 10 0 6 2 10 4 10 3 0 8 -4 11 -10z"/>
<path d="M430 1969 c0 -5 5 -7 10 -4 6 3 10 8 10 11 0 2 -4 4 -10 4 -5 0 -10
-5 -10 -11z"/>
<path d="M395 1950 c-4 -6 -11 -8 -16 -5 -5 4 -9 1 -9 -4 0 -14 17 -14 25 -1
3 6 11 10 16 10 6 0 7 -5 3 -12 -4 -7 -3 -8 5 -4 12 8 6 26 -9 26 -5 0 -12 -5
-15 -10z"/>
<path d="M4289 1914 c-10 -12 -9 -18 3 -31 19 -18 38 -10 38 17 0 24 -25 33
-41 14z"/>
<path d="M597 1894 c-12 -12 -8 -42 6 -47 21 -8 39 8 35 29 -3 19 -29 30 -41
18z"/>
<path d="M4530 1820 c0 -5 5 -10 11 -10 5 0 7 5 4 10 -3 6 -8 10 -11 10 -2 0
-4 -4 -4 -10z"/>
<path d="M633 1810 c-48 -20 -57 -87 -17 -127 21 -21 32 -24 60 -20 19 3 42
14 51 23 23 22 23 86 1 108 -21 20 -66 28 -95 16z"/>
<path d="M3997 1809 c-9 -6 -15 -14 -12 -20 4 -5 1 -9 -4 -9 -6 0 -10 -11 -9
-24 1 -14 6 -23 10 -20 4 2 11 -4 17 -13 6 -10 11 -13 11 -7 0 6 9 11 20 10
11 0 19 1 18 4 -1 3 4 16 11 29 11 19 11 22 0 16 -9 -6 -11 -3 -6 8 3 9 1 19
-5 23 -7 4 -8 3 -4 -4 10 -17 -5 -15 -18 3 -8 10 -16 11 -29 4z m50 -60 c0
-18 -40 -20 -58 -2 -9 9 -9 16 -1 26 7 8 8 18 4 22 -4 5 -1 5 6 1 7 -4 12 -2
12 5 0 6 8 1 18 -12 11 -13 19 -31 19 -40z"/>
<path d="M4000 1776 c-15 -19 -6 -35 17 -32 22 4 27 20 10 35 -11 9 -17 8 -27
-3z m30 -19 c0 -7 -4 -6 -10 3 -8 12 -10 12 -10 1 0 -8 -3 -12 -6 -8 -9 9 6
28 17 22 5 -4 9 -12 9 -18z"/>
<path d="M356 1798 c3 -4 11 -5 19 -1 21 7 19 12 -4 10 -11 0 -18 -5 -15 -9z"/>
<path d="M385 1787 c-14 -11 -15 -16 -5 -22 9 -6 11 -4 5 5 -6 10 -4 12 9 7 9
-4 15 -3 11 2 -3 5 1 12 7 14 7 3 8 6 2 6 -5 1 -18 -5 -29 -12z"/>
<path d="M337 1783 c-3 -5 -1 -17 4 -28 4 -11 8 -14 8 -7 1 7 7 10 14 7 6 -4
4 0 -5 8 -10 8 -15 17 -11 20 3 4 4 7 0 7 -3 0 -8 -3 -10 -7z"/>
<path d="M4570 1760 c0 -5 5 -10 11 -10 5 0 7 5 4 10 -3 6 -8 10 -11 10 -2 0
-4 -4 -4 -10z"/>
<path d="M400 1751 c0 -6 4 -13 10 -16 6 -3 7 1 4 9 -7 18 -14 21 -14 7z"/>
<path d="M4217 1747 c-15 -10 -16 -15 -5 -30 12 -16 15 -16 33 -3 18 13 18 16
5 30 -13 13 -19 14 -33 3z"/>
<path d="M375 1739 c-4 -6 -5 -12 -2 -15 2 -3 7 2 10 11 7 17 1 20 -8 4z"/>
<path d="M4455 1733 c3 -7 -7 -19 -24 -27 -16 -9 -33 -28 -39 -44 -13 -39 11
-98 44 -106 13 -4 24 -11 24 -17 0 -6 -7 -6 -21 1 -15 9 -24 8 -35 -1 -10 -8
-14 -8 -14 0 0 6 6 11 13 11 9 0 9 2 -1 9 -8 4 -13 11 -13 15 2 16 0 18 -14 6
-8 -7 -13 -16 -10 -20 3 -4 -1 -10 -8 -13 -18 -7 -17 -93 2 -89 12 3 12 1 1
-13 -12 -15 -12 -16 4 -13 13 2 20 -4 22 -22 3 -18 2 -21 -5 -10 -5 8 -7 18
-4 24 3 5 1 6 -5 2 -6 -4 -9 -12 -6 -20 3 -7 -2 -13 -10 -13 -10 0 -14 9 -11
28 3 28 -14 34 -37 11 -9 -9 -7 -13 5 -18 21 -8 22 -21 2 -21 -8 0 -15 4 -15
9 0 5 -5 6 -11 2 -8 -5 -6 -10 5 -16 13 -7 14 -13 5 -29 -8 -17 -6 -24 11 -39
15 -13 17 -20 8 -24 -7 -3 -3 -3 10 0 15 4 22 1 20 -7 -2 -7 10 -13 30 -15 17
-1 32 2 32 7 0 6 5 7 10 4 6 -3 10 -1 10 5 0 6 4 9 8 6 4 -2 14 -1 21 4 11 6
8 14 -12 34 -14 14 -22 28 -17 31 5 3 18 -7 29 -21 22 -28 23 -27 23 21 1 49
-1 57 -14 49 -7 -4 -8 -3 -4 5 4 6 3 18 -3 25 -14 17 -5 43 14 43 20 0 19 -7
-2 -23 -17 -13 -17 -14 2 -8 17 5 18 4 5 -6 -13 -10 -13 -11 0 -7 8 2 14 10
13 16 -2 6 7 10 18 8 12 -1 24 4 27 12 3 10 -1 12 -17 8 -11 -3 -24 -1 -27 4
-3 5 -10 7 -15 4 -5 -4 -9 -1 -9 5 0 6 14 9 35 7 21 -3 33 0 32 7 -3 19 -20
25 -39 15 -10 -5 -18 -6 -18 -2 0 4 -5 1 -10 -7 -6 -9 -10 -10 -10 -3 0 21 31
44 52 37 13 -4 18 -2 14 4 -3 5 1 23 9 38 22 44 -4 114 -43 114 -8 0 -21 8
-29 18 -8 9 -12 12 -8 5z m-70 -182 c0 -16 -3 -27 -7 -25 -4 2 -10 -1 -14 -7
-4 -7 -3 -10 2 -7 5 4 10 -5 11 -19 0 -16 -2 -21 -7 -13 -6 10 -9 9 -13 -1 -2
-8 -4 2 -3 21 0 19 6 38 11 42 6 4 11 12 11 18 4 32 10 26 9 -9z m69 -37 c3
-9 1 -24 -4 -35 -9 -15 -15 -17 -30 -9 -11 6 -20 7 -20 3 0 -4 -6 1 -12 11 -9
16 -7 23 11 37 24 19 46 16 55 -7z m-9 -74 c3 -5 1 -10 -4 -10 -6 0 -11 5 -11
10 0 6 2 10 4 10 3 0 8 -4 11 -10z m-112 -14 c4 -10 1 -13 -8 -9 -8 3 -12 9
-9 14 7 12 11 11 17 -5z m142 -58 c0 -27 0 -27 -20 -8 -22 21 -42 15 -42 -13
0 -10 7 -16 16 -15 8 2 17 -5 19 -14 4 -19 -18 -19 -40 0 -11 8 -17 9 -26 0
-8 -8 -11 -5 -9 11 1 16 6 20 22 16 11 -3 14 -2 7 1 -10 5 -10 9 -1 20 8 10 8
14 0 14 -6 0 -11 -5 -11 -11 0 -5 -4 -7 -10 -4 -5 3 -10 1 -10 -4 0 -19 -16
-12 -17 8 -1 14 4 19 17 16 11 -2 22 0 25 5 3 5 22 8 43 7 34 -2 38 -5 37 -29z
m-143 4 c-3 -10 -1 -13 7 -8 6 4 11 4 10 -1 -4 -21 2 -34 13 -27 7 4 8 3 4 -5
-4 -6 -13 -8 -19 -5 -7 4 -3 -2 8 -13 17 -17 21 -18 31 -5 8 11 13 12 18 3 5
-7 5 -15 2 -19 -9 -9 -56 -11 -51 -2 2 4 -9 17 -26 29 -23 17 -27 25 -19 40 5
10 7 20 5 23 -3 3 1 5 9 5 8 0 12 -6 8 -15z"/>
<path d="M4417 1524 c-3 -3 -3 -12 0 -20 4 -10 0 -13 -13 -8 -15 5 -16 4 -4
-4 8 -6 17 -9 21 -6 4 2 10 -2 13 -8 3 -7 3 -2 0 11 -5 18 -3 22 7 15 12 -6
12 -5 0 9 -15 19 -15 19 -24 11z"/>
<path d="M4316 1351 c-4 -5 -2 -12 3 -15 5 -4 12 -2 15 3 4 5 2 12 -3 15 -5 4
-12 2 -15 -3z"/>
<path d="M686 1647 c-25 -18 -18 -68 12 -83 33 -16 59 -7 71 26 18 53 -37 91
-83 57z"/>
<path d="M475 1543 c3 -3 -3 -16 -12 -27 -14 -15 -14 -18 -2 -8 9 6 18 9 22 6
3 -3 4 1 3 10 -1 8 -5 18 -9 21 -4 3 -5 2 -2 -2z"/>
<path d="M4142 1543 c-10 -4 -10 -8 0 -21 8 -10 9 -13 1 -9 -6 4 -13 1 -16 -5
-7 -23 4 -38 27 -34 11 2 15 1 9 -1 -20 -7 -15 -19 7 -20 11 -1 20 3 20 9 0 6
3 8 7 5 6 -7 32 21 33 36 0 4 -9 16 -20 27 -19 19 -42 24 -68 13z m48 -21 c0
-5 -7 -9 -15 -9 -8 0 -12 4 -9 9 3 4 9 8 15 8 5 0 9 -4 9 -8z"/>
<path d="M501 1514 c0 -11 3 -14 6 -6 3 7 2 16 -1 19 -3 4 -6 -2 -5 -13z"/>
<path d="M754 1485 c-8 -19 12 -36 32 -28 17 6 10 37 -9 41 -10 2 -20 -4 -23
-13z"/>
<path d="M482 1427 c-46 -49 -16 -130 50 -131 27 -1 34 -5 30 -17 -6 -26 16
-58 44 -65 30 -8 64 19 64 51 0 25 -29 55 -54 55 -14 0 -15 4 -6 20 14 27 -4
86 -30 100 -32 17 -75 11 -98 -13z"/>
<path d="M4497 1436 c-10 -8 -14 -16 -10 -19 5 -3 14 3 21 14 14 22 13 23 -11
5z"/>
<path d="M4095 1407 c-38 -32 -29 -72 17 -82 61 -14 85 56 31 92 -18 12 -24
11 -48 -10z"/>
<path d="M266 1399 c-9 -11 -11 -19 -5 -19 8 0 8 -4 0 -14 -17 -20 24 -49 49
-36 10 5 21 6 25 2 5 -4 5 -1 1 6 -4 6 -3 12 3 12 5 0 9 9 8 20 -1 11 -5 20
-10 20 -4 0 -5 5 -2 10 4 6 3 10 -2 9 -4 -1 -10 0 -13 1 -23 8 -40 5 -54 -11z
m60 -14 c17 -22 1 -47 -23 -38 -11 5 -14 3 -8 -6 6 -10 3 -11 -14 -1 -12 6
-19 16 -15 22 4 7 9 6 15 -3 5 -8 9 -9 9 -3 0 5 -6 16 -12 23 -11 11 -10 13 4
8 10 -3 20 -1 24 5 4 6 3 8 -4 4 -6 -3 -13 -2 -16 3 -11 17 27 4 40 -14z"/>
<path d="M307 1376 c-3 -8 -2 -18 3 -21 13 -8 20 9 11 24 -6 10 -10 9 -14 -3z"/>
<path d="M875 1308 c-30 -16 -45 -39 -45 -70 0 -36 40 -78 73 -78 35 0 74 35
79 71 8 54 -59 103 -107 77z m10 -28 c3 -5 1 -10 -4 -10 -6 0 -11 5 -11 10 0
6 2 10 4 10 3 0 8 -4 11 -10z m-15 -56 c0 -8 -19 -13 -24 -6 -3 5 1 9 9 9 8 0
15 -2 15 -3z m56 -6 c3 -4 -1 -5 -10 -4 -8 1 -18 5 -22 8 -3 4 1 5 10 4 8 -1
18 -5 22 -8z"/>
<path d="M3905 1216 c-24 -14 -49 -36 -39 -36 3 0 2 -6 -4 -12 -19 -24 -10
-66 19 -92 40 -36 82 -34 120 3 33 34 35 50 13 96 -18 38 -75 60 -109 41z"/>
<path d="M398 1162 c-8 -9 -13 -23 -12 -29 1 -7 2 -17 3 -21 1 -12 51 -33 61
-27 5 3 7 19 5 35 -2 16 1 33 7 36 6 4 8 3 4 -4 -3 -6 -2 -13 3 -16 9 -6 9 19
0 28 -14 14 -59 13 -71 -2z m17 -2 c-3 -5 -1 -10 4 -10 6 0 11 5 11 11 0 5 5
7 11 3 8 -5 8 -9 -1 -14 -9 -5 -9 -9 -1 -14 14 -9 14 -26 0 -26 -5 0 -8 4 -4
9 9 15 -15 25 -28 12 -9 -9 -7 -10 7 -5 13 5 17 4 12 -4 -3 -6 2 -15 11 -21
10 -6 13 -11 8 -11 -18 0 -53 29 -51 42 2 16 15 38 22 38 3 0 2 -4 -1 -10z"/>
<path d="M3577 1111 c-4 -17 -3 -21 5 -13 5 5 8 16 6 23 -3 8 -7 3 -11 -10z"/>
<path d="M3615 1101 c-3 -6 4 -15 15 -21 13 -7 20 -7 20 0 0 5 -7 10 -16 10
-8 0 -12 5 -9 10 3 6 4 10 1 10 -3 0 -7 -4 -11 -9z"/>
<path d="M4250 1107 c0 -4 9 -17 20 -29 32 -34 23 -45 -10 -13 -16 16 -30 27
-31 24 0 -2 -2 -12 -4 -22 -3 -15 -1 -16 11 -6 17 14 19 -2 2 -19 -9 -9 -9
-12 3 -12 12 0 12 -2 0 -9 -10 -7 -6 -9 13 -8 23 2 24 3 9 14 -9 7 -13 16 -9
20 4 5 16 -3 27 -16 10 -13 19 -19 20 -15 0 5 2 16 3 24 1 8 -10 28 -26 45
-15 16 -28 26 -28 22z"/>
<path d="M4296 1087 c3 -10 9 -15 12 -12 3 3 0 11 -7 18 -10 9 -11 8 -5 -6z"/>
<path d="M3530 1079 c0 -5 6 -9 13 -8 26 3 38 -1 31 -13 -5 -7 -3 -8 5 -3 8 4
9 11 4 16 -14 14 -53 19 -53 8z"/>
<path d="M3614 1055 c-4 -8 -11 -12 -17 -8 -6 3 -7 1 -3 -5 10 -17 26 -15 26
4 0 9 5 12 12 8 7 -4 8 -3 4 4 -10 16 -15 15 -22 -3z"/>
<path d="M3655 1060 c-3 -5 -1 -10 4 -10 6 0 11 5 11 10 0 6 -2 10 -4 10 -3 0
-8 -4 -11 -10z"/>
<path d="M3554 1026 c2 -21 6 -40 10 -43 3 -3 4 11 2 31 -2 21 -6 40 -10 43
-3 3 -4 -11 -2 -31z"/>
<path d="M1190 1020 c0 -5 -7 -7 -15 -4 -8 4 -15 1 -15 -7 0 -7 -3 -9 -7 -6
-3 4 -13 -3 -21 -14 -11 -17 -12 -23 -2 -29 10 -6 9 -9 -1 -13 -11 -4 -9 -9 6
-22 11 -9 14 -14 8 -10 -15 7 -18 -11 -3 -20 12 -7 42 8 40 21 0 5 6 10 15 10
13 2 13 1 0 -3 -8 -2 -13 -9 -9 -14 3 -5 -2 -12 -10 -15 -9 -3 -13 -10 -10
-16 3 -5 12 -4 22 4 12 10 14 10 8 1 -4 -7 -3 -13 2 -13 14 0 23 28 11 34 -5
2 -4 3 3 2 7 -2 12 -9 11 -15 -4 -17 11 -13 30 9 18 21 22 66 8 88 -7 12 -56
42 -67 42 -2 0 -4 -4 -4 -10z m20 -20 c0 -5 -8 -10 -17 -10 -15 0 -16 2 -3 10
19 12 20 12 20 0z m-49 -33 c-10 -9 -11 -8 -5 6 3 10 9 15 12 12 3 -3 0 -11
-7 -18z m89 13 c0 -5 -6 -7 -14 -4 -21 8 -14 -29 8 -42 17 -10 17 -12 2 -17
-10 -4 -15 -3 -12 2 3 5 0 11 -7 14 -11 4 -15 34 -8 55 3 7 31 0 31 -8z m-50
-20 c0 -5 -4 -10 -10 -10 -5 0 -10 5 -10 10 0 6 5 10 10 10 6 0 10 -4 10 -10z
m-30 -20 c0 -5 -4 -10 -10 -10 -5 0 -10 5 -10 10 0 6 5 10 10 10 6 0 10 -4 10
-10z"/>
<path d="M3456 1009 c-8 -12 -12 -33 -10 -47 7 -34 13 -40 24 -22 6 9 5 18 -3
23 -8 6 -8 7 3 4 9 -2 14 -13 12 -28 -4 -24 -3 -24 13 -4 9 11 14 14 10 8 -8
-17 3 -17 19 0 8 7 14 25 14 39 0 21 -7 29 -31 37 -38 14 -33 15 -51 -10z m54
-8 c0 -4 -11 -7 -25 -7 -14 0 -25 3 -25 7 0 3 11 7 25 7 14 0 25 -4 25 -7z
m15 -31 c3 -5 1 -10 -4 -10 -6 0 -11 5 -11 10 0 6 2 10 4 10 3 0 8 -4 11 -10z"/>
<path d="M3630 1020 c0 -5 5 -10 10 -10 6 0 10 5 10 10 0 6 -4 10 -10 10 -5 0
-10 -4 -10 -10z"/>
<path d="M3592 996 c7 -8 15 -12 17 -11 5 6 -10 25 -20 25 -5 0 -4 -6 3 -14z"/>
<path d="M3979 988 c-7 -23 -3 -45 8 -41 9 4 10 9 3 18 -5 6 -7 15 -3 18 3 4
3 7 0 7 -4 0 -7 -1 -8 -2z"/>
<path d="M4030 959 c0 -5 5 -7 10 -4 6 3 10 8 10 11 0 2 -4 4 -10 4 -5 0 -10
-5 -10 -11z"/>
<path d="M4000 940 c-9 -6 -10 -10 -3 -10 6 0 15 5 18 10 8 12 4 12 -15 0z"/>
<path d="M834 928 c-5 -7 -2 -8 6 -3 10 6 12 4 7 -8 -4 -11 -2 -14 9 -10 7 3
14 9 14 13 0 13 -29 20 -36 8z"/>
<path d="M4010 920 c-9 -6 -10 -10 -3 -10 6 0 15 5 18 10 8 12 4 12 -15 0z"/>
<path d="M564 905 c-8 -19 3 -35 26 -35 19 0 34 25 24 41 -8 14 -44 10 -50 -6z"/>
<path d="M3377 878 c4 -19 3 -20 -6 -8 -9 13 -11 13 -11 -2 0 -11 8 -18 19
-18 26 0 36 17 21 35 -18 22 -29 18 -23 -7z"/>
<path d="M920 865 c-7 -14 -10 -28 -7 -32 4 -3 7 1 7 11 0 9 5 14 10 11 7 -4
7 -12 0 -25 -6 -11 -6 -21 -1 -25 13 -8 21 8 16 34 -3 15 0 19 8 14 7 -4 5 2
-3 13 -8 10 -15 20 -15 21 -1 2 -8 -8 -15 -22z"/>
<path d="M950 881 c0 -6 5 -13 10 -16 8 -5 7 -11 -1 -21 -8 -10 -8 -14 0 -14
6 0 11 5 11 10 0 6 3 9 8 9 18 -3 32 2 32 12 0 5 -5 7 -10 4 -6 -3 -13 1 -16
9 -7 17 -34 22 -34 7z m31 -18 c13 -16 12 -17 -3 -4 -10 7 -18 15 -18 17 0 8
8 3 21 -13z"/>
<path d="M3730 881 c0 -7 -4 -9 -10 -6 -16 10 -12 -21 4 -34 12 -10 17 -8 25
7 8 15 7 23 -4 32 -11 9 -15 10 -15 1z"/>
<path d="M1412 863 c-6 -3 -9 -10 -6 -15 4 -7 2 -8 -4 -4 -7 4 -18 1 -26 -6
-12 -11 -12 -16 2 -33 15 -17 15 -18 1 -7 -14 10 -16 8 -17 -18 -1 -52 77 -85
118 -50 19 17 28 36 12 26 -4 -2 -14 0 -22 5 -13 9 -13 10 0 8 32 -3 40 2 40
24 -1 43 -58 84 -98 70z m35 -19 c-3 -4 4 -15 16 -26 12 -11 17 -17 10 -14 -6
4 -13 1 -16 -6 -2 -7 -3 -5 -2 5 4 25 -14 21 -25 -5 -5 -14 -9 -17 -9 -7 -1 8
4 20 11 27 9 9 9 12 -2 12 -13 0 -13 2 0 10 17 11 26 13 17 4z m44 -21 c13
-16 12 -17 -3 -4 -17 13 -22 21 -14 21 2 0 10 -8 17 -17z m-81 -3 c0 -5 -4
-10 -10 -10 -5 0 -10 5 -10 10 0 6 5 10 10 10 6 0 10 -4 10 -10z m85 -30 c-3
-5 -12 -10 -18 -10 -7 0 -6 4 3 10 19 12 23 12 15 0z m-89 -9 c-4 -5 -3 -11 1
-14 5 -2 3 -2 -4 -1 -17 4 -26 -13 -11 -19 9 -4 10 -6 1 -6 -21 -2 -25 20 -7
34 22 17 27 18 20 6z m44 -21 c0 -5 -4 -10 -10 -10 -5 0 -10 5 -10 10 0 6 5
10 10 10 6 0 10 -4 10 -10z m-20 -31 c0 -6 -4 -7 -10 -4 -5 3 -10 11 -10 16 0
6 5 7 10 4 6 -3 10 -11 10 -16z m32 -1 c-7 -7 -12 -8 -12 -2 0 14 12 26 19 19
2 -3 -1 -11 -7 -17z"/>
<path d="M630 826 c-12 -15 -6 -75 8 -77 4 0 17 -2 29 -5 39 -7 66 39 44 75
-12 18 -56 27 -45 9 6 -10 5 -10 -8 0 -12 10 -18 10 -28 -2z m22 -20 c7 4 8 2
4 -5 -9 -13 -26 -5 -25 12 0 9 2 8 6 -1 2 -6 10 -9 15 -6z m52 -25 c-8 -8 -43
-8 -38 0 2 4 13 7 24 6 10 -1 17 -3 14 -6z"/>
<path d="M964 813 c-29 -32 -37 -63 -16 -63 15 -1 15 -2 2 -13 -9 -7 -14 -21
-12 -32 4 -16 2 -17 -11 -7 -16 14 -142 11 -155 -3 -4 -4 -2 -5 4 -2 15 9 26
-17 13 -30 -16 -16 -17 -75 -3 -104 33 -66 128 -80 173 -25 7 9 18 13 24 9 5
-3 7 -2 4 4 -3 5 -2 26 3 46 4 21 4 37 -1 37 -5 0 -9 6 -9 13 1 16 60 94 60
78 0 -7 9 -3 22 9 16 15 24 17 30 8 11 -18 10 -28 -3 -28 -5 0 -7 5 -4 10 9
15 -4 12 -22 -5 -8 -8 -20 -12 -26 -8 -6 4 -8 0 -4 -10 4 -11 2 -14 -9 -10 -7
3 -14 0 -14 -6 0 -6 4 -11 9 -11 5 0 12 -8 15 -17 6 -16 6 -16 -12 0 -10 9
-22 14 -25 10 -11 -10 27 -32 49 -28 10 2 23 4 27 4 5 1 6 5 2 10 -11 19 44 6
58 -13 8 -11 25 -21 38 -23 21 -2 22 -1 7 8 -10 5 -18 15 -18 22 0 8 3 8 8 2
6 -10 18 -11 46 -7 6 1 1 9 -10 17 -19 14 -19 14 1 15 15 0 16 3 7 12 -10 10
-15 10 -23 -2 -8 -12 -9 -10 -4 8 3 12 3 22 0 22 -14 0 -45 -22 -41 -28 3 -5
1 -14 -5 -22 -6 -11 -9 -8 -9 13 0 15 -5 27 -11 27 -6 0 -9 -6 -6 -13 3 -8 -5
-13 -22 -14 -14 -1 -19 1 -11 4 8 4 20 13 26 21 6 9 16 12 24 7 9 -6 11 2 8
31 -5 38 -23 84 -34 84 -2 0 0 -9 6 -21 7 -11 10 -23 7 -25 -2 -3 -10 9 -17
25 -6 16 -18 32 -26 35 -9 3 -12 1 -9 -4 3 -6 1 -10 -4 -10 -6 0 -11 4 -11 9
0 20 -64 8 -86 -16z m101 -7 c8 4 15 1 15 -5 0 -7 12 -23 26 -38 14 -14 23
-27 20 -30 -5 -6 -55 47 -56 59 0 4 -11 5 -25 2 -27 -5 -28 -4 -19 21 6 15 8
16 16 2 5 -9 15 -14 23 -11z m-78 -26 c-14 -11 -29 -20 -33 -20 -4 0 3 9 16
20 13 11 27 20 33 20 5 0 -2 -9 -16 -20z m43 -4 c0 -3 -4 -8 -10 -11 -5 -3
-10 -1 -10 4 0 6 5 11 10 11 6 0 10 -2 10 -4z m36 -7 c3 -6 0 -15 -7 -20 -19
-12 -29 -11 -29 1 0 6 3 9 8 9 19 -3 25 2 12 11 -9 6 -10 10 -3 10 6 0 15 -5
19 -11z m-83 -33 c-10 -14 -22 -26 -27 -26 -8 0 1 14 29 46 18 22 17 6 -2 -20z
m27 -6 c-8 -6 -11 -10 -6 -10 5 0 -1 -8 -12 -19 -12 -10 -18 -22 -14 -26 4 -5
1 -5 -6 -1 -9 5 -5 16 14 42 15 19 29 32 33 29 3 -3 -1 -10 -9 -15z m80 -34
c0 -2 -9 -6 -20 -9 -11 -3 -18 -1 -14 4 5 9 34 13 34 5z m85 -7 c-4 -5 1 -20
12 -31 18 -21 18 -21 -4 -9 -24 12 -39 0 -27 -21 5 -10 4 -10 -5 -2 -10 9 -10
17 -2 33 7 12 8 21 4 21 -4 0 -1 5 7 10 19 13 23 12 15 -1z m-115 -29 c0 -5
-2 -10 -4 -10 -3 0 -8 5 -11 10 -3 6 -1 10 4 10 6 0 11 -4 11 -10z"/>
<path d="M1649 762 c-34 -4 -77 -49 -82 -87 -15 -112 133 -167 192 -71 50 81
-12 170 -110 158z"/>
<path d="M2983 755 c-62 -26 -59 -120 4 -143 52 -17 102 16 108 73 1 6 -4 22
-12 36 -17 36 -60 51 -100 34z"/>
<path d="M3495 759 c-4 -5 -15 -7 -26 -4 -13 4 -19 2 -19 -9 0 -9 -5 -16 -11
-16 -5 0 -7 6 -4 13 4 6 -5 -1 -19 -18 -28 -33 -34 -81 -14 -118 10 -20 10
-21 -5 -8 -12 9 -17 10 -17 2 0 -7 -4 -9 -10 -6 -12 7 -13 -15 -2 -30 10 -14
32 -17 32 -5 0 5 10 14 21 21 15 8 19 8 15 0 -4 -6 -2 -12 3 -12 14 -2 30 -6
34 -9 15 -12 54 -1 84 25 32 27 35 33 24 53 -10 18 -9 21 3 16 12 -5 14 0 6
25 -12 41 -19 51 -36 51 -8 0 -13 4 -10 9 3 4 -6 13 -19 19 -16 7 -26 8 -30 1z
m70 -57 c-3 -3 0 -11 6 -19 17 -20 5 -16 -14 5 -15 16 -15 19 -2 19 8 0 13 -3
10 -5z m-31 -37 c3 3 4 2 1 -2 -9 -11 -36 -12 -29 -2 3 6 2 16 -3 22 -4 7 -1
5 8 -5 9 -9 19 -15 23 -13z m-47 2 c0 -8 -6 -14 -14 -14 -9 0 -10 4 -2 14 6 7
12 13 14 13 1 0 2 -6 2 -13z m-32 -47 c-4 -6 -1 -19 6 -28 12 -16 12 -16 -5 0
-16 14 -15 38 0 38 3 0 2 -5 -1 -10z m45 5 c0 -2 -6 -8 -13 -14 -10 -8 -14 -7
-14 2 0 8 6 14 14 14 7 0 13 -1 13 -2z"/>
<path d="M3670 710 c-25 -23 -30 -35 -27 -58 6 -37 27 -71 49 -78 36 -11 58
-12 58 -3 0 6 3 8 8 5 4 -2 14 1 23 7 45 33 45 103 1 137 -36 29 -74 25 -112
-10z"/>
<path d="M751 712 c-17 -18 -21 -46 -10 -64 5 -8 7 -1 6 17 -2 18 3 35 13 42
8 6 13 14 10 16 -3 3 -12 -2 -19 -11z"/>
<path d="M1223 638 c-35 -37 -34 -78 2 -113 30 -31 66 -32 99 -2 44 38 39 103
-11 126 -37 17 -67 13 -90 -11z"/>
<path d="M2155 643 c-7 -6 -16 -9 -20 -5 -5 4 -5 1 -1 -6 6 -10 -5 -11 -47 -6
-50 6 -55 5 -75 -21 -38 -48 -26 -98 30 -122 21 -9 28 -9 32 0 3 9 5 9 5 -1 1
-9 8 -8 29 5 15 9 24 13 20 8 -11 -12 11 -35 28 -28 8 3 14 1 14 -4 0 -9 17
-10 71 -5 9 1 16 9 16 17 0 18 -9 19 -24 4 -7 -7 -10 -3 -8 16 2 16 -1 25 -8
22 -7 -2 -11 -16 -9 -30 4 -31 -4 -34 -30 -10 -17 15 -20 15 -28 3 -7 -11 -8
-6 -6 14 4 35 16 42 66 40 26 -1 39 3 37 10 -2 6 -18 10 -35 9 -29 -1 -31 0
-26 30 3 18 6 37 6 43 1 12 52 13 64 2 4 -4 1 -14 -6 -23 -8 -9 -8 -15 -2 -15
6 0 14 5 17 10 4 6 12 7 18 4 7 -4 2 4 -11 18 -27 30 -96 42 -117 21z m19 -15
c-3 -13 -6 -35 -7 -50 -1 -15 -5 -30 -9 -34 -4 -3 -5 5 -3 19 4 17 0 27 -12
32 -16 6 -15 8 7 20 14 8 21 14 17 15 -5 0 -5 5 -2 10 10 17 14 11 9 -12z"/>
<path d="M2734 644 c5 -13 4 -14 -7 -5 -11 8 -18 6 -31 -8 -10 -11 -15 -25
-11 -30 3 -6 1 -11 -5 -11 -16 0 -2 -41 22 -63 10 -10 26 -16 34 -13 9 3 12 1
9 -4 -10 -16 18 -11 48 8 15 10 24 22 20 25 -3 4 -1 7 5 7 20 0 13 55 -8 78
-12 12 -24 22 -28 23 -4 0 -18 2 -31 5 -18 3 -22 1 -17 -12z m73 -49 c0 -8 -4
-12 -9 -9 -5 3 -6 10 -3 15 9 13 12 11 12 -6z m-37 -17 c0 -4 -4 -8 -9 -8 -6
0 -12 4 -15 8 -3 5 1 9 9 9 8 0 15 -4 15 -9z m-60 -18 c0 -5 -2 -10 -4 -10 -3
0 -8 5 -11 10 -3 6 -1 10 4 10 6 0 11 -4 11 -10z m56 -26 c1 -9 0 -13 -4 -10
-3 4 -7 14 -8 22 -1 9 0 13 4 10 3 -4 7 -14 8 -22z"/>
<path d="M2204 619 c-3 -6 -7 -21 -8 -34 -3 -19 1 -23 17 -19 11 2 26 -1 34
-7 9 -8 13 -8 13 -1 0 15 -41 42 -53 35 -6 -3 -7 -1 -3 6 4 6 15 10 23 9 9 -2
18 2 20 7 4 14 -35 17 -43 4z"/>
<path d="M1000 605 c0 -2 6 -8 13 -14 10 -8 14 -7 14 2 0 8 -6 14 -14 14 -7 0
-13 -1 -13 -2z"/>
<path d="M2327 599 c-9 -5 -27 -9 -39 -7 -12 2 -23 -3 -26 -11 -3 -9 0 -11 8
-6 8 5 11 4 7 -2 -13 -21 -16 -82 -5 -89 7 -5 8 -2 3 7 -4 8 4 2 19 -13 48
-50 129 -28 142 38 11 54 -63 111 -109 83z"/>
<path d="M1004 562 c4 -3 14 -7 22 -8 9 -1 13 0 10 4 -4 3 -14 7 -22 8 -9 1
-13 0 -10 -4z"/>
<path d="M3123 552 c-31 -5 -72 -47 -79 -80 -5 -23 -10 -28 -25 -25 -26 7 -59
-24 -59 -53 0 -14 10 -30 26 -41 25 -16 28 -16 57 0 27 16 32 16 53 2 43 -28
103 -15 136 29 58 79 -9 183 -109 168z"/>
<path d="M1023 524 c9 -11 15 -23 12 -26 -3 -2 2 -5 10 -5 10 0 12 4 5 12 -5
7 -6 16 -2 21 4 5 3 6 -2 2 -5 -4 -16 -2 -25 4 -12 10 -12 7 2 -8z"/>
<path d="M956 521 c-3 -5 2 -15 12 -22 15 -12 16 -12 5 2 -7 9 -10 19 -6 22 3
4 4 7 0 7 -3 0 -8 -4 -11 -9z"/>
<path d="M989 517 c6 -8 9 -16 6 -19 -3 -2 2 -5 10 -5 13 0 13 3 -2 19 -19 21
-31 25 -14 5z"/>
<path d="M1465 508 c-55 -48 -26 -138 45 -138 42 0 80 35 80 75 0 70 -73 107
-125 63z"/>
<path d="M2161 520 c-4 -3 3 -16 17 -30 20 -20 23 -21 18 -6 -3 10 -2 24 3 30
7 8 4 12 -10 12 -11 0 -23 -3 -28 -6z"/>
<path d="M2233 513 c0 -15 19 -12 24 3 2 6 -3 11 -10 11 -8 0 -14 -6 -14 -14z"/>
<path d="M934 486 c1 -8 5 -18 8 -22 4 -3 5 1 4 10 -1 8 -5 18 -8 22 -4 3 -5
-1 -4 -10z"/>
<path d="M1210 473 c-8 -4 -21 -13 -28 -22 -8 -9 -11 -10 -7 -3 3 6 3 12 0 12
-10 0 -30 -23 -45 -49 -10 -20 -10 -25 4 -33 18 -10 22 -28 5 -28 -5 0 -7 5
-4 10 3 6 1 10 -4 10 -15 0 -9 -32 12 -64 15 -22 21 -25 38 -15 11 6 23 8 27
5 3 -3 0 -6 -6 -6 -7 0 -12 -5 -12 -12 0 -6 3 -8 6 -5 4 3 15 2 25 -3 13 -7
22 -6 33 5 8 9 18 16 21 15 22 -1 26 2 23 17 -2 9 -12 17 -22 19 -10 1 -23 8
-27 16 -4 7 -12 9 -16 4 -4 -4 3 -17 17 -28 20 -16 21 -19 6 -16 -10 1 -21 -3
-24 -11 -3 -9 0 -11 8 -6 9 6 11 4 5 -4 -5 -9 -10 -10 -18 -2 -7 7 -7 14 1 24
12 14 7 27 -10 27 -5 0 -6 -4 -3 -10 3 -5 1 -10 -4 -10 -6 0 -11 5 -11 11 0 6
-7 3 -16 -5 -8 -9 -20 -16 -26 -16 -6 0 0 9 13 20 l24 20 -31 28 c-27 25 -29
31 -18 47 8 10 28 19 46 21 18 1 25 0 16 -3 -20 -5 -23 -18 -8 -28 5 -3 7 -12
3 -20 -4 -11 -1 -13 13 -8 18 7 18 6 2 -11 -25 -24 -23 -43 2 -21 19 17 21 17
40 0 11 -10 20 -15 20 -11 0 4 9 2 19 -3 14 -8 20 -7 25 4 3 8 0 17 -6 21 -7
5 -8 2 -3 -5 6 -10 3 -11 -12 -2 -11 6 -23 7 -27 4 -3 -3 -6 -1 -6 6 0 8 7 11
15 7 49 -18 51 39 3 79 -32 27 -43 30 -53 15 -3 -5 -11 -10 -17 -10 -7 0 -6 6
2 15 13 16 13 16 -10 8z m36 -28 c-3 -9 1 -18 9 -21 8 -4 12 -10 9 -16 -8 -13
-33 23 -27 39 3 7 7 13 10 13 3 0 2 -7 -1 -15z m29 -5 c3 -5 1 -10 -4 -10 -6
0 -11 5 -11 10 0 6 2 10 4 10 3 0 8 -4 11 -10z m35 -31 c0 -6 -4 -7 -10 -4 -5
3 -10 11 -10 16 0 6 5 7 10 4 6 -3 10 -11 10 -16z m-72 -7 c2 -7 -1 -12 -8
-12 -6 0 -9 4 -6 9 4 5 1 12 -4 14 -6 3 -5 4 2 3 6 -1 14 -8 16 -14z m56 -8
c9 -3 16 -11 16 -16 0 -7 -5 -6 -13 1 -8 6 -17 8 -20 4 -4 -3 -7 -1 -7 5 0 14
2 14 24 6z m-34 -14 c0 -5 -5 -10 -11 -10 -5 0 -7 5 -4 10 3 6 8 10 11 10 2 0
4 -4 4 -10z m-90 -39 c0 -14 -29 -21 -36 -9 -4 6 -3 8 4 4 6 -3 13 -2 17 4 8
12 15 13 15 1z"/>
<path d="M1717 454 c-63 -42 -60 -134 5 -174 51 -32 124 -13 147 37 47 103
-61 199 -152 137z"/>
<path d="M974 449 c-3 -6 -2 -15 3 -20 5 -5 9 -1 9 11 0 23 -2 24 -12 9z"/>
<path d="M1015 451 c-3 -5 -2 -12 3 -15 5 -3 9 1 9 9 0 17 -3 19 -12 6z"/>
<path d="M1156 415 c-3 -10 4 -26 19 -42 l24 -27 -3 28 c-1 15 -10 34 -18 42
-14 14 -16 14 -22 -1z"/>
<path d="M2011 364 c-25 -31 -28 -74 -6 -74 8 0 15 -5 15 -11 0 -5 -6 -7 -12
-4 -7 4 -2 -3 10 -14 14 -12 33 -19 45 -17 12 3 28 5 35 5 8 1 11 11 7 29 -5
33 9 63 18 37 4 -9 3 -13 -3 -10 -5 3 -8 -4 -7 -15 2 -34 21 -16 23 23 2 25
-4 44 -18 59 l-20 23 16 -27 c9 -16 13 -28 8 -28 -5 0 -15 11 -22 25 -7 14
-20 25 -28 25 -9 0 -12 -3 -9 -7 4 -3 2 -12 -4 -20 -9 -11 -7 -13 12 -11 19 2
23 -1 21 -17 -2 -11 -4 -32 -4 -47 -1 -16 -5 -28 -10 -28 -4 0 -6 14 -4 30 2
20 -1 29 -8 27 -6 -2 -10 -12 -9 -21 0 -10 -1 -15 -5 -12 -3 3 -11 -2 -19 -12
-13 -15 -13 -15 -4 5 14 29 14 31 -6 29 -22 -1 -23 22 0 54 9 13 17 19 17 12
0 -7 5 -10 10 -7 11 7 4 25 -10 25 -5 0 -18 -12 -29 -26z m49 -104 c0 -5 -5
-10 -11 -10 -5 0 -7 5 -4 10 3 6 8 10 11 10 2 0 4 -4 4 -10z"/>
<path d="M2025 346 c-17 -20 -16 -36 3 -32 40 9 62 19 62 28 0 6 -7 7 -16 4
-9 -4 -22 -2 -28 3 -7 6 -15 5 -21 -3z"/>
<path d="M2475 331 c-3 -5 -2 -12 3 -15 5 -3 9 1 9 9 0 17 -3 19 -12 6z"/>
<path d="M2420 321 c0 -5 7 -12 16 -15 14 -5 15 -4 4 9 -14 17 -20 19 -20 6z"/>
<path d="M1425 308 c-49 -28 -59 -78 -24 -122 38 -48 132 -26 144 33 6 30 -21
76 -52 90 -30 14 -43 13 -68 -1z"/>
<path d="M3180 308 c0 -5 -4 -7 -9 -4 -5 3 -14 -1 -21 -9 -7 -8 -9 -15 -4 -15
5 0 1 -5 -9 -11 -15 -9 -16 -13 -5 -27 11 -13 11 -14 -1 -7 -11 6 -13 4 -8 -9
4 -10 7 -22 7 -28 0 -6 7 -8 14 -5 10 4 13 1 10 -7 -3 -8 5 -16 21 -20 31 -8
68 1 60 15 -3 5 1 6 9 3 13 -5 25 15 32 56 4 19 -24 62 -36 55 -4 -3 -10 0
-12 7 -5 13 -48 19 -48 6z m28 -33 c-3 -3 -9 2 -12 12 -6 14 -5 15 5 6 7 -7
10 -15 7 -18z m-25 1 c4 -10 1 -13 -8 -9 -8 3 -12 9 -9 14 7 12 11 11 17 -5z
m81 -15 c4 -5 -3 -7 -14 -4 -23 6 -26 13 -6 13 8 0 17 -4 20 -9z m-77 -25 c0
-8 -6 -12 -15 -8 -9 3 -13 1 -9 -5 3 -5 -1 -10 -10 -10 -12 0 -11 5 7 19 27
22 27 22 27 4z m14 -53 c-12 -20 -14 -14 -5 12 4 9 9 14 11 11 3 -2 0 -13 -6
-23z"/>
<path d="M2475 289 c-4 -6 -5 -12 -2 -15 2 -3 7 2 10 11 7 17 1 20 -8 4z"/>
<path d="M3333 285 c0 -7 6 -11 14 -8 7 3 13 6 13 8 0 2 -6 5 -13 8 -8 3 -14
-1 -14 -8z"/>
<path d="M2420 279 c0 -5 5 -7 10 -4 6 3 10 8 10 11 0 2 -4 4 -10 4 -5 0 -10
-5 -10 -11z"/>
<path d="M3300 280 c-9 -6 -10 -10 -3 -10 6 0 15 5 18 10 8 12 4 12 -15 0z"/>
<path d="M3345 260 c-3 -6 1 -7 9 -4 18 7 21 14 7 14 -6 0 -13 -4 -16 -10z"/>
<path d="M1567 247 c3 -5 -1 -13 -8 -18 -12 -7 -12 -9 0 -9 10 0 7 -8 -9 -25
-28 -29 -35 -56 -14 -48 9 3 14 0 12 -8 -2 -8 3 -13 10 -11 6 1 12 -3 12 -10
0 -6 7 -3 15 8 13 16 14 16 9 2 -4 -11 -1 -18 6 -18 6 0 9 4 5 9 -3 5 -1 12 4
16 6 3 7 13 4 21 -5 13 -8 13 -15 2 -8 -10 -9 -10 -5 2 2 8 13 14 23 12 16 -2
15 1 -6 19 -16 13 -19 19 -8 15 10 -3 20 -1 23 5 4 5 10 7 15 4 4 -3 7 3 6 12
-2 10 -8 19 -14 19 -7 1 -13 3 -14 4 -9 7 -56 5 -51 -3z m34 -17 c6 0 7 6 3
13 -6 9 -5 9 8 0 8 -7 19 -9 24 -5 4 4 3 -1 -5 -10 -7 -9 -18 -15 -26 -12 -16
7 -29 -12 -15 -21 8 -5 8 -11 0 -20 -6 -7 -9 -18 -8 -25 2 -7 -5 -14 -14 -15
-10 -2 -17 0 -17 3 3 22 -2 32 -13 26 -7 -4 0 7 15 24 16 16 29 33 28 36 -1 3
-1 12 0 19 0 10 2 10 6 0 2 -7 9 -13 14 -13z"/>
<path d="M1561 187 c-8 -10 -7 -19 5 -33 8 -10 13 -13 9 -6 -4 7 -2 19 5 27 6
8 7 16 2 19 -6 3 -15 0 -21 -7z"/>
<path d="M1670 219 c-19 -12 -36 -21 -37 -20 -7 3 -4 -11 3 -17 4 -4 4 -1 -1
7 -6 10 -4 12 4 7 9 -6 9 -11 0 -23 -16 -19 -19 -55 -4 -50 6 3 22 -6 35 -20
20 -21 31 -24 67 -20 30 3 41 1 36 -7 -3 -6 -2 -7 3 -3 5 5 10 13 10 18 1 5 2
14 3 20 0 5 4 8 9 5 4 -2 7 14 7 37 0 35 -5 46 -29 65 -37 28 -61 28 -106 1z"/>
<path d="M3053 233 c-12 -3 -25 -13 -28 -23 -6 -20 3 -70 14 -71 3 0 16 -2 27
-4 27 -6 57 26 52 56 -4 27 -35 47 -65 42z"/>
<path d="M2751 196 c-67 -37 -67 -140 -1 -179 69 -41 160 6 160 83 0 11 4 19
9 15 5 -3 13 0 17 6 4 8 3 9 -4 5 -6 -4 -18 6 -27 24 -27 53 -101 75 -154 46z"/>
<path d="M1895 151 c-3 -5 -2 -12 3 -15 5 -3 9 1 9 9 0 17 -3 19 -12 6z"/>
<path d="M1949 144 c-6 -7 -15 -12 -19 -9 -9 6 -25 -52 -21 -75 1 -8 15 -25
29 -38 20 -18 34 -22 56 -18 35 7 69 35 62 52 -2 6 -1 15 4 20 12 13 -7 57
-21 48 -8 -4 -9 -3 -5 5 13 21 -67 36 -85 15z m65 -22 c2 -4 -4 -8 -14 -8 -10
0 -16 4 -14 8 3 4 9 8 14 8 5 0 11 -4 14 -8z"/>
<path d="M1856 142 c-3 -5 1 -9 9 -9 8 0 12 4 9 9 -3 4 -7 8 -9 8 -2 0 -6 -4
-9 -8z"/>
<path d="M2225 96 c-8 -6 -18 -23 -20 -38 -4 -21 0 -31 20 -44 23 -15 27 -15
50 0 26 17 35 42 12 33 -8 -3 -14 1 -14 8 0 7 7 11 15 8 12 -5 12 -2 3 14 -13
25 -45 35 -66 19z m22 -9 c0 -8 -6 -14 -14 -14 -9 0 -10 4 -2 14 6 7 12 13 14
13 1 0 2 -6 2 -13z m-26 -50 c-10 -9 -11 -8 -5 6 3 10 9 15 12 12 3 -3 0 -11
-7 -18z m31 0 c-7 -8 -8 -18 -4 -22 4 -5 1 -5 -5 -1 -10 5 -10 11 -1 26 7 11
14 17 17 15 2 -3 -1 -11 -7 -18z"/>
<path d="M1816 58 c3 -5 10 -6 15 -3 13 9 11 12 -6 12 -8 0 -12 -4 -9 -9z"/>
</g>
</svg>
